<?xml version="1.0" encoding="UTF-8"?><svg id="Layer_2" xmlns="http://www.w3.org/2000/svg" viewBox="0 0 1933.75 567.2"><defs><style>.cls-1{fill:#e1c2ce;}</style></defs><g id="Layer_1-2"><path class="cls-1" d="M1932.16,150.62c-.29-.59-.5-1.28-.54-1.93-.23-3.29-2.08-5.81-3.69-8.51-2.79-4.67-7.46-6.77-11.89-9.23-.6-.33-1.64.13-2.47.22.44.69.74,1.63,1.37,2.02.92.57,2.35.46,3.1,1.14,3.34,3.07,7.54,5.32,9.62,9.63,1.2,2.5,2.86,4.97,3.26,7.61.54,3.6.11,7.35.01,11.04-.02.76-.25,1.59-.62,2.25-2.73,4.82-4.48,10.32-9.15,13.82-4.34,3.26-7.82,8.66-14.61,6.24-.1-.03-.23,0-.33.02-5.16,1.3-10.43,1.27-15.69,1.04-4.91-.22-9.81-.65-14.71-1.07-.75-.06-1.58-.38-2.16-.84-1.89-1.52-4.05-1.75-6.34-1.69-1,.03-2.02-.04-3.01-.19-.38-.06-.71-.44-1.06-.68.36-.34.7-.94,1.08-.97,3.45-.22,6.92-.44,10.38-.45,6.36-.03,12.77.93,19.04-.98.72-.22,1.55-.08,2.33-.06,2.2.05,4.4.12,6.6.2,1.56.06,3.13.29,4.67.19,1.49-.1,3.09-.23,4.41-.85,3.34-1.59,5.73-4.35,7.45-7.53,4.22-7.8,5.74-15.8.74-23.89-1.46-2.36-3.21-4.56-4.93-6.75-1.44-1.83-2.98-3.58-4.56-5.3-.51-.55-1.21-1.1-1.91-1.27-2.57-.64-5.06-1.53-7.88-.62-3.12,1.01-3.7.41-3.89-2.94-.33-5.94-2.41-11.34-5.11-16.56-1.03-1.98-2.19-3.93-2.95-6.01-1.87-5.15-6.48-6.47-10.9-7.87-2.05-.65-3.3.96-2.36,2.83.71,1.42.24,1.38-.91,1.52-2.77.35-5.58.63-8.25,1.37-1.36.38-2.57,1.59-3.64,2.64-1.49,1.47-2.69,3.24-4.19,4.71-4.51,4.42-8.6,9.11-11.25,14.94-.49,1.08-1.49,1.93-2.26,2.89-.14-1.25-.3-2.5-.4-3.75-.03-.32.13-.66.23-.98,2.15-7.21,6.77-12.79,11.9-18.03,1.4-1.43,2.93-2.78,4.07-4.4,1.23-1.75,2.66-2.94,4.73-3.48,1.51-.4,3.02-.91,4.43-1.58,6.11-2.88,11.84-1.14,17.21,1.8,4.44,2.43,7.94,6.11,10.72,10.42,3.42,5.29,5.64,10.77,3.86,17.25-.24.87.25,2.37.93,2.94.62.52,1.98.28,2.99.16,1.27-.15,2.5-.53,3.75-.82.31-.07.61-.16.91-.24-.29-.24-.55-.57-.88-.7-.82-.34-1.81-.41-2.48-.91-1.36-1.02-3.03-1.75-2.83-4.12.64-7.51-2.46-13.74-7.08-19.37-4.71-5.75-11.43-8.25-18.18-9.7-4.13-.88-7.58-2.05-10.01-5.25-1.97-2.59-4.48-4.39-7.1-6.01-2.44-1.5-5.19-3.26-7.9-3.44-6.83-.44-13.9-1.91-20.34,2.14-1.76,1.11-3.32.5-4.74-1.07-1.72-1.89-3.53-3.81-5.63-5.23-2.74-1.85-5.65-3.73-8.77-4.69-3.81-1.17-7.9-1.51-11.89-1.98-1.36-.16-2.81.26-4.18.58-.85.2-1.6.86-2.45,1.04-7.12,1.5-12.45,5.92-16.36,11.54-7.93,11.39-8.22,23.56-1.94,35.92,1.66,3.27,3.18,6.61,4.85,9.88,1.37,2.69,2.59,5.51,4.35,7.93,5.2,7.14,10.55,14.18,16.01,21.12,2.69,3.42,5.72,6.59,8.69,9.79,2.47,2.66,4.18,2.93,7.45,1.39,4.25-2,8.47-4.08,12.72-6.07,2.67-1.25,3.67-.55,3.8,2.38.17,3.8.44,7.59.67,11.39.23,3.87,1.82,6.54,5.94,7.43,6.12,1.32,12.2,2.82,18.28,4.3,9.31,2.27,18.8,2.87,28.19,3.16,8.27-.52,16.37-.44,23.97-4.44,3.55-1.87,7.01-3.81,10.3-6.05,1.16-.79,1.98-2.07,2.93-3.15,2.8-3.14,4.46-6.86,5.93-10.78,2.06-5.5,3.34-10.87.58-16.49ZM1856.39,123.8c.87-1.68,1.74-3.36,2.74-4.96.23-.37.92-.57,1.41-.6.23-.01.5.57.6.7.01,1.71-2.62,5.27-4.07,5.77-.18.06-.56.05-.59-.01-.09-.28-.22-.66-.1-.89ZM1854.07,101.34c-6.18,4.82-10.66,10.96-13.19,18.24-1.93,5.56-3.1,11.43-4.1,17.25-.62,3.62-1.67,6.27-5.38,7.67-2.48.94-4.66,2.64-7.01,3.93-4.18,2.29-5.29,1.8-8.67-1.43-5.61-5.34-9.99-11.6-14.15-18-4.69-7.22-8.9-14.74-10.53-23.36-.39-2.07-.49-4.19-.73-6.29-.76-3.91,1.42-6.37,4-8.74,2.58-2.36,5.48-3.81,9.02-3.89,5.54-.12,10.36,1.54,14.12,5.74,1.64,1.83,3.15,3.78,4.74,5.67,3.42,4.07,6.52,4.67,11.18,2.26,2.87-1.48,5.71-3.13,8.74-4.2,3.94-1.4,7.92-1.13,11.62,1.18,2.29,1.43,2.5,2.28.34,3.96ZM1811.65,160.75c-2.68-3.14-5.19-6.42-7.74-9.67-.16-.21-.09-.6-.12-.9.3.05.69,0,.87.18,1.29,1.22,2.65,2.39,3.77,3.76,1.95,2.38,3.74,4.89,5.6,7.34-.83-.2-1.93-.18-2.38-.71ZM1828.52,159.66c-3.43,1.58-7.01,2.86-10.6,4.04-1.81.6-3.3-.14-3.78-2.19,1.08-.28,2.16-.57,3.23-.85-.4-.99-.57-2.17-1.23-2.93-4.83-5.56-9.72-11.07-14.67-16.53-1.37-1.51-2.95-2.86-4.53-4.16-5.27-4.37-7.15-10.94-10.77-16.38-1.18-1.77-2.51-3.47-3.43-5.37-3.94-8.08-3.49-16.27-.07-24.36.72-1.69,2.16-3.11,3.4-4.54,1.31-1.51,2.78-2.89,4.19-4.33,1.5-1.54,3.18-2.9.92-5.27-.9-.94.13-1.86,1.28-2.07,4.91-.9,9.82-1.89,14.76-2.56,1.24-.17,2.64.7,3.93,1.18.61.23,1.1.88,1.71,1,7.14,1.3,11.41,6.62,15.92,11.49,2.61,2.81,2.59,3.04,5.73,1.11,1.42-.87,2.77-1.87,4.15-2.81,2.69-1.83,5.78-1.55,8.77-1.56,5.92-.03,11.21,1.78,15.73,5.72.91.79,2.19,1.14,3.18,1.86.78.57,1.65,1.29,1.98,2.13.27.69.08,1.95-.41,2.44-.42.42-1.73.41-2.37.07-1.97-1.04-3.77-2.37-5.7-3.49-.72-.42-1.59-.67-2.42-.77-2.29-.28-4.71-.06-6.87-.71-5.04-1.54-9.32.13-13.14,2.96-3.46,2.56-4.16,2.79-7.17-.43-1.52-1.63-2.86-3.45-4.52-4.91-1.23-1.08-2.76-1.93-4.3-2.5-2.31-.85-3.95-2.3-4.38-4.66-.39-2.16-1.57-3.08-3.55-3.39-.55-.09-1.09-.25-1.62-.45-2.42-.89-2.48-.89-2.06,1.53.3,1.75-.62,2.27-2.06,2.22-4.69-.17-8.76,1.47-12.57,4.04-2.3,1.55-3.91,3.46-4.78,6.22-1.01,3.18-2.64,6.15-3.88,9.27-.47,1.19-.97,2.57-.83,3.79,1.04,9.02,4.95,16.93,10.02,24.29,1.36,1.98,3.52,3.39,5.09,5.24,3.24,3.83,6.57,7.62,9.39,11.75,1.67,2.45,2.69,5.28,4.89,7.49,2.46,2.48,4.92,3.33,8.1,1.65,5.6-2.96,11.59-5.29,16.07-10.07.8-.85,2-1.42,3.12-1.87,7.95-3.14,14.68-8,20.43-14.26,1.29-1.4,2.5-2.87,3.9-4.16.56-.52,1.51-.63,2.28-.93.14.8.57,1.67.38,2.38-.96,3.5-2.79,6.52-5.22,9.26-4.74,5.32-10.52,9.31-16.17,13.52-6.12,4.56-12.48,8.7-19.41,11.88ZM1856.77,172.02c-2.6-.43-5.03-1.06-6.75-3.3-1.13-1.48-2.14-1.06-2.64.51-.47,1.49-.69,3.06-1.04,4.59-.31,1.37-.78,2.8-2.43,2.77-1.79-.03-2.01-1.58-2.03-2.95-.04-4.12-.29-8.28.16-12.35.21-1.91,1.78-3.71,2.93-5.43.29-.42,1.43-.52,2.06-.34.31.09.51,1.14.49,1.75-.05,1.9-.36,3.79-.29,5.68.03.71.81,1.4,1.24,2.1.42-.7,1.12-1.37,1.2-2.11.18-1.77.49-3.72-.04-5.34-1.1-3.36.56-5.38,2.8-7.22,3.12-2.55,6.41-4.88,9.48-7.48,4.73-3.99,8.74-8.65,12.07-13.87,2.27-3.56,3.42-7.5,3.95-11.69.15-1.19.66-2.77,1.54-3.34,1.57-1.01,3.26-.13,4.55,1.09,3.7,3.49,4.98,7.87,4.55,12.83-.15,1.79-.51,3.56-.58,5.34-.19,5.51,3.21,9.41,8.64,10.08,2.78.34,5.54.8,8.32,1.16,8.9,1.14,12.51,8.35,11.06,16.8-1.3,7.59-6.99,11.62-14.11,12.9-2.2.39-4.44.67-6.68.77-3.02.13-6.05.03-9.08.03-9.92.17-19.66-1.39-29.4-2.99Z"/><path class="cls-1" d="M592.67,12.37v3.05h-8.82v106.19h8.82v3.05h-48.92v-3.05h8.82V15.42h-8.82v-3.05h48.92Z"/><path class="cls-1" d="M760.3,12.37v3.05h-8.82v106.19h8.82v3.05h-48.93v-3.05h8.82V21.35h-.64l-24.06,103.31h-20.05l-28.23-103.79h-.64v100.74h8.82v3.05h-21.81v-3.05h8.82V15.42h-8.82v-3.05h43.31l21.34,82.61,19.25-82.61h42.83Z"/><path class="cls-1" d="M821.1,12.37v3.05h-8.82v106.19h8.82v3.05h-48.92v-3.05h8.82V15.42h-8.82v-3.05h48.92Z"/><path class="cls-1" d="M901.46,106.05c0-13.31-9.94-17.65-29.68-23.26-19.41-5.45-34.17-13.15-34.17-37.38,0-17.97,13.31-34.81,38.02-34.81,14.76,0,23.1,4.97,28.55,4.97,2.73,0,3.53-1.12,4.65-3.21h1.77l1.12,32.41h-2.57c-8.18-14.76-19.09-30.8-35.61-30.8-11.55,0-19.57,6.74-19.57,16.2,0,11.87,10.91,15.88,27.11,20.21,17.81,4.81,37.54,10.91,37.54,37.54,0,23.1-15.72,38.34-39.3,38.34-15.56,0-29.03-4.81-33.53-4.81-2.57,0-3.53,1.77-4.81,4.81h-2.25l-1.6-38.18h2.72c8.02,16.04,23.58,34.81,41.23,34.81,9.62,0,20.37-5.13,20.37-16.84Z"/><path class="cls-1" d="M998.36,106.05c0-13.31-9.94-17.65-29.68-23.26-19.41-5.45-34.17-13.15-34.17-37.38,0-17.97,13.31-34.81,38.02-34.81,14.76,0,23.1,4.97,28.55,4.97,2.73,0,3.53-1.12,4.65-3.21h1.77l1.12,32.41h-2.57c-8.18-14.76-19.09-30.8-35.61-30.8-11.55,0-19.57,6.74-19.57,16.2,0,11.87,10.91,15.88,27.11,20.21,17.81,4.81,37.54,10.91,37.54,37.54,0,23.1-15.72,38.34-39.3,38.34-15.56,0-29.03-4.81-33.53-4.81-2.57,0-3.53,1.77-4.81,4.81h-2.25l-1.6-38.18h2.72c8.02,16.04,23.58,34.81,41.23,34.81,9.62,0,20.37-5.13,20.37-16.84Z"/><path class="cls-1" d="M1068.55,114.23c-.75-11.47,5.96-22.94,18.32-38.58-3.87-4.47-6.4-8.94-8.04-13.41l-2.38.15c-9.53,0-16.24-6.56-16.84-17.88-.89-18.32,17.43-38.29,44.54-38.29,11.62,0,24.58,3.87,24.58,19.22,0,11.17-4.17,19.36-24.43,43.79-16.84,20.26-32.48,37.54-32.48,47.82,0,4.62,2.53,7.89,7.45,7.89,12.07,0,29.49-17.13,46.48-41.86l17.72-28.15c19.96-31.58,33.37-46.92,41.56-46.92,5.36,0,6.7,7-4.17,22.2-7.89,11.32-18.02,23.09-34.56,37.84l-7.6,12.22c-16.09,25.62-20.26,31.13-20.26,37.98,0,3.58,2.38,6.11,7.3,6.11,7.89,0,16.09-7,26.51-22.35l2.83-4.17c.74-.6,1.04-.6,1.49,0l-2.83,4.17c-11.02,16.24-19.66,23.69-28.45,23.69-7.6,0-10.13-5.21-10.13-11.62s2.38-14.3,5.96-21h-.75c-15.49,20.11-30.24,33.22-41.11,33.22-6.11,0-10.13-4.02-10.73-12.07ZM1076.45,61.05l1.94-.15c-6.41-20.26,7.89-38.28,17.28-38.28,3.58,0,7.6,1.94,8.19,8.49,1.04,11.62-9.53,28.45-23.69,30.98,1.49,4.17,3.87,8.49,7.45,12.66l11.17-13.55c14.9-17.58,25.62-29.94,25.62-40.52,0-8.49-7.75-13.11-20.11-13.11-26.52,0-44.84,19.66-43.35,37.54.89,10.43,7.15,15.94,15.49,15.94ZM1102.51,31.41c-.44-5.66-3.58-7.45-7-7.45-9.09,0-22.05,17.43-15.79,36.79,13.41-2.24,23.69-18.47,22.79-29.35ZM1179.97,29.47c10.28-14.15,8.94-20.11,6.11-20.11-3.87,0-11.32,13.26-26.22,37.09l-11.62,18.62c14.6-13.7,24.13-25.17,31.73-35.6Z"/><path class="cls-1" d="M1168.9,147.28c14.12-12.03,16.04-17,16.04-23.1,0-4.81-2.73-6.58-4.97-6.9l-7.7,6.9c-4.17-1.44-9.63-5.77-9.63-12.51,0-7.7,5.46-13.15,13.63-13.15,9.95,0,15.56,8.02,15.56,17.97,0,12.51-6.26,22.3-21.01,33.21l-1.93-2.41Z"/><path class="cls-1" d="M340.32,315.98c0,6.95-.94,14.27-2.82,21.95-1.89,7.68-4.42,15.28-7.61,22.82-3.19,7.54-6.74,14.85-10.65,21.95-3.91,7.1-7.75,13.55-11.52,19.34-13.63,20.28-28.84,40.27-45.64,59.98-16.81,19.7-35.2,37.38-55.2,53.03-19.99,15.65-41.51,28.25-64.55,37.81-23.03,9.56-47.45,14.35-73.24,14.35-21.15,0-37.96-5.8-50.42-17.39-12.46-11.59-18.69-28.11-18.69-49.55,0-15.07,2.82-29.92,8.47-44.55,5.65-14.63,12.39-28.47,20.21-41.51,8.98-13.91,19.63-26.44,31.95-37.6,12.31-11.15,25.86-20.64,40.64-28.47l1.31-.87-.87-1.31c-1.45-4.35-2.46-9.05-3.04-14.13-.59-5.07-.87-10.06-.87-15,0-12.17,1.66-24.48,5-36.94,3.33-12.46,7.75-24.19,13.26-35.21l.87-1.74-1.74-.87c-7.82-3.48-15.15-7.82-21.95-13.04-6.81-5.21-12.76-11.08-17.82-17.6-5.07-6.52-9.13-13.69-12.17-21.51-3.04-7.82-4.56-16.08-4.56-24.78v-3.48c0-1.15.14-2.31.44-3.48,1.15-7.82,2.75-15.43,4.78-22.82,2.02-7.39,4.92-14.7,8.69-21.95,8.98-17.67,21.44-33.46,37.38-47.38,15.93-13.91,33.53-25.64,52.81-35.2,19.27-9.56,39.41-16.8,60.42-21.73,21.01-4.92,41.07-7.39,60.2-7.39,8.98,0,18.9.94,29.77,2.83,10.86,1.89,19.92,5.43,27.16,10.65l.87.44.87-.44c10.43-4.92,21.44-8.69,33.03-11.3,11.58-2.61,23.18-3.91,34.77-3.91,9.56,0,19.05.87,28.47,2.61,9.41,1.74,17.82,4.78,25.21,9.13,7.39,4.35,13.32,10.15,17.82,17.38,4.49,7.25,6.73,16.37,6.73,27.39,0,13.91-3.26,27.96-9.78,42.16-6.52,14.2-14.78,27.82-24.77,40.86-10,13.04-21.01,25.06-33.03,36.08-12.03,11.02-23.41,20.43-34.12,28.25-27.24,18.84-56.07,33.18-86.49,43.03-30.43,9.85-62.16,14.78-95.19,14.78-8.4,0-16.81-.44-25.21-1.3-8.41-.87-16.67-2.18-24.78-3.91l-1.74-.44-.44,1.3c-4.93,11.02-9.28,23.11-13.04,36.29-3.77,13.19-5.95,25.86-6.52,38.03l-.44,2.61,2.61-.87c10.14-3.76,20.49-6.66,31.07-8.69,10.58-2.02,21.23-3.04,31.95-3.04,5.5,0,10.06,1.24,13.69,3.7,3.62,2.46,6.59,5.73,8.91,9.78,2.32,4.06,3.98,8.55,5,13.47,1.01,4.93,1.52,9.86,1.52,14.78,0,6.08-.59,12.24-1.74,18.47-1.16,6.23-2.76,12.24-4.78,18.04l-.87,3.04,3.04-.44c11.01-2.02,21.66-6.15,31.94-12.39,10.28-6.23,19.41-13.84,27.38-22.82,7.97-8.98,14.35-19.05,19.13-30.21,4.78-11.15,7.17-22.53,7.17-34.12,0-4.92-.72-9.85-2.17-14.78-1.45-4.92-4.06-9.27-7.82-13.04,12.45.58,22.53,4.06,30.21,10.43,7.67,6.38,11.52,16.52,11.52,30.43ZM50.85,425.51c-7.82,12.17-14.78,25.65-20.86,40.42-6.08,14.78-9.13,29.56-9.13,44.33s3.98,27.67,11.95,36.95c7.97,9.27,19.92,13.91,35.86,13.91h3.91c21.73-2.03,41.43-7.1,59.11-15.21,17.67-8.12,33.9-18.33,48.68-30.64,14.78-12.32,28.32-26.3,40.64-41.94,12.31-15.65,24.12-32.02,35.42-49.11,3.19-4.93,6.44-9.93,9.78-15,3.33-5.07,6.59-10.36,9.78-15.87,3.19-5.5,6.16-10.93,8.91-16.3,2.75-5.36,5.28-10.65,7.6-15.87l5.65-13.47-8.69,11.73c-8.69,12.17-18.84,22.32-30.42,30.42-11.59,8.12-24.78,13.48-39.55,16.08l-.87.44-.44.87c-3.19,8.4-7.17,16.52-11.95,24.34-4.78,7.82-9.93,15.35-15.43,22.6-5.22,6.66-11.38,13.11-18.47,19.34-7.1,6.23-14.78,11.8-23.03,16.73-8.26,4.92-16.81,8.91-25.65,11.95-8.84,3.04-17.6,4.56-26.3,4.56-9.28,0-16.81-2.25-22.6-6.74-5.8-4.49-8.69-11.81-8.69-21.95,0-7.25,1.74-15.14,5.22-23.69,3.48-8.55,8.04-16.45,13.69-23.69,5.65-7.25,12.17-13.26,19.56-18.04,7.39-4.78,15-7.17,22.82-7.17,3.76,0,7.46,1.11,11.08,3.33,3.62,2.21,6.59,5.02,8.91,8.4-3.19-1.16-6.52-1.74-10-1.74-7.25,0-14.42,2.25-21.51,6.77-7.1,4.51-13.48,10.19-19.12,17.03-5.65,6.84-10.21,14.19-13.69,22.06-3.48,7.86-5.22,15.14-5.22,21.84,0,7.56,2.18,13.17,6.52,16.81,4.35,3.64,10,5.46,16.95,5.46,13.04,0,25.06-2.97,36.08-8.91,11.01-5.94,21.08-13.55,30.21-22.82,9.13-9.28,17.17-19.49,24.12-30.64,6.95-11.16,12.75-21.95,17.38-32.38l1.31-2.61h-2.61c-8.99,0-18.04-.51-27.17-1.53-9.13-1.02-17.9-2.9-26.3-5.65-8.41-2.75-16.23-6.66-23.47-11.73-7.25-5.07-13.48-11.52-18.69-19.34l-.87-1.31-1.31.87c-10.43,7.54-21.16,16.01-32.16,25.43-11.02,9.41-19.99,19.63-26.95,30.64ZM333.8,19.12l3.04-1.31-2.61-1.74c-6.67-4.05-14.42-6.88-23.25-8.48-8.84-1.59-16.88-2.39-24.12-2.39-14.2,0-28.9,1.67-44.12,5-15.21,3.33-30.07,8.11-44.55,14.34-14.49,6.23-28.18,13.84-41.07,22.82-12.9,8.98-24.2,19.27-33.9,30.86-9.71,11.59-17.38,24.41-23.03,38.47-5.65,14.06-8.47,29.2-8.47,45.42,0,12.17,2.68,24.2,8.04,36.08,5.36,11.89,12.96,21.59,22.82,29.12l1.31,1.3,1.3-2.17c10.43-19.41,23.47-39.4,39.12-59.98,15.65-20.57,32.67-40.2,51.07-58.89,18.4-18.69,37.74-35.78,58.02-51.29,20.28-15.5,40.42-27.89,60.42-37.16ZM197.32,328.15c-4.64,0-9.78.87-15.43,2.61-5.65,1.74-11.38,3.84-17.17,6.3-5.8,2.46-11.3,5.15-16.52,8.04-5.21,2.9-9.71,5.51-13.47,7.82l-.87.87.44.87c1.45,10.43,4.7,18.84,9.78,25.21,5.07,6.38,11.15,11.3,18.25,14.78,7.1,3.48,14.92,5.87,23.47,7.17,8.54,1.3,17.02,1.96,25.43,1.96h1.3l.44-1.31c2.32-6.66,4.35-13.54,6.09-20.64,1.74-7.1,2.61-14.27,2.61-21.51,0-3.77-.37-7.61-1.09-11.52-.73-3.91-2.03-7.39-3.91-10.43-1.89-3.05-4.42-5.5-7.61-7.39-3.19-1.88-7.1-2.82-11.73-2.82ZM220.79,255.57h3.05c15.35-.87,30.2-2.83,44.55-5.87,14.34-3.05,28.47-7.75,42.38-14.13,14.19-6.37,27.96-14.13,41.29-23.25,13.32-9.13,25.71-19.34,37.17-30.64,11.44-11.3,21.87-23.54,31.29-36.73,9.41-13.18,17.45-26.87,24.12-41.07,4.05-8.4,7.46-17.31,10.21-26.73,2.75-9.41,4.13-18.76,4.13-28.04,0-13.04-3.33-23.54-10-31.51-6.67-7.97-16.95-11.95-30.86-11.95-11.3,0-22.6,1.38-33.9,4.13-11.3,2.76-22.02,7.03-32.16,12.82l-1.74.87.87,1.74c3.18,4.06,5.65,8.69,7.39,13.91,1.74,5.22,2.61,10.29,2.61,15.21,0,9.28-2.39,19.71-7.17,31.29-4.78,11.59-11.08,22.46-18.9,32.6-7.82,10.15-16.67,18.62-26.52,25.43-9.85,6.81-19.7,10.21-29.55,10.21-8.12,0-13.91-2.75-17.39-8.26h3.48c10.72,0,21.44-3.11,32.16-9.34,10.72-6.23,20.36-14.13,28.9-23.69,8.55-9.56,15.5-19.99,20.86-31.3,5.36-11.3,8.04-22.01,8.04-32.16,0-4.05-.73-8.04-2.18-11.95-1.45-3.91-3.63-7.17-6.52-9.78l-1.31-.87-.87.44c-18.25,10.72-36.36,24.63-54.33,41.72-17.97,17.1-35.14,35.58-51.51,55.42-16.37,19.85-31.37,40.28-44.98,61.29-13.62,21.01-25.21,40.79-34.77,59.33l-.87,1.74,1.74.87c9.84,3.48,19.99,5.73,30.42,6.74,10.43,1.02,20.71,1.52,30.86,1.52Z"/><path class="cls-1" d="M507.56,180.18c75.86,0,114.33,46.57,114.33,126.67s-37.05,127.73-118.56,127.73-116.44-45.52-116.44-123.14,41.99-131.26,120.68-131.26ZM549.19,295.91c0-72.34-2.12-108.32-44.46-108.32s-45.52,37.4-45.52,109.74v25.4c0,66.33,4.23,104.44,45.52,104.44s44.46-34.23,44.46-105.15v-26.11Z"/><path class="cls-1" d="M769.41,180.18c75.86,0,114.33,46.57,114.33,126.67s-37.05,127.73-118.56,127.73-116.44-45.52-116.44-123.14,41.99-131.26,120.68-131.26ZM811.05,295.91c0-72.34-2.12-108.32-44.46-108.32s-45.52,37.4-45.52,109.74v25.4c0,66.33,4.23,104.44,45.52,104.44s44.46-34.23,44.46-105.15v-26.11Z"/><path class="cls-1" d="M1003.39,431.05h-99.85v-6.7h23.29v-233.59h-23.29v-6.7h109.03c87.16,0,135.5,31.4,135.5,119.26,0,99.51-60.34,127.73-144.67,127.73ZM1009.04,424.35c47.63,0,66.33-30.7,66.33-109.74v-20.47c0-85.74-21.88-103.38-71.28-103.38h-8.47v233.59h13.41Z"/><path class="cls-1" d="M1283.95,184.06c62.1,0,98.09,14.11,98.09,57.86,0,33.87-21.17,51.87-58.22,57.87v.71c44.46,5.64,70.57,24.34,70.57,61.39,0,54.69-45.87,69.16-112.21,69.16h-103.74v-6.7h22.94v-233.59h-22.94v-6.7h105.5ZM1270.19,299.44h9.17c25.4,0,32.81-16.23,32.81-45.17v-16.59c0-33.87-6-46.93-30.69-46.93h-11.29v108.68ZM1270.19,424.35h16.58c27.17,0,34.93-20.47,34.93-52.93v-18.7c0-28.94-9.18-46.58-43.4-46.58h-8.12v118.21Z"/><path class="cls-1" d="M1584.62,189.7h-35.64v-5.64h69.51v5.64h-23.28l-53.28,117.85v116.79h21.52v6.7h-111.85v-6.7h21.52v-110.09l-59.98-124.56h-16.59v-5.64h112.91v5.64h-22.93l47.99,110.44,50.1-110.44Z"/><path class="cls-1" d="M1820.01,184.06l3.53,69.86h-6.35c-19.41-46.22-35.99-62.1-78.69-62.1h-12.35v109.03h12c22.94,0,37.76-19.41,43.75-46.22h5.29v104.44h-6c-8.47-35.29-21.88-49.05-46.58-49.05h-8.47v113.27h13.41c44.81,0,75.86-30.7,86.45-69.16h7.06l-2.82,76.92h-193.72v-7.76h20.82v-231.47h-20.82v-7.76h183.48Z"/><path class="cls-1" d="M1876.95,335.96c14.23,0,24.35,7.11,24.35,23.25,0,14.5-8.21,24.35-23.53,24.35-18.33,0-24.35-12.59-24.35-23.53,0-13.4,8.21-24.08,23.53-24.08Z"/></g></svg>