<?xml version="1.0" encoding="UTF-8"?><svg id="Layer_2" xmlns="http://www.w3.org/2000/svg" viewBox="0 0 137.85 123.49"><defs><style>.cls-1{fill:#233d4d;}.cls-2{fill:#231f20;}</style></defs><g id="Layer_3"><path class="cls-2" d="M6.99,123.06L0,68.35l8.58-1.84c6.53-1.4,10.43,5.39,11.5,19.83.31,4.21.23,7.78-.25,10.73-.47,2.91-1.49,2.68-3.05,7.2l7.86,18.02-5.38.23-7.05-15.77-3.04.34,2.57,15.77-4.77.21ZM6.26,77.12l2.11,21.66,2.93-.39c.92-.12,1.63-.45,2.14-1.01.51-.55.88-1.29,1.11-2.24.2-.94.3-2.08.29-3.43,0-1.35-.09-2.92-.24-4.71-.15-1.8-.34-3.38-.56-4.74-.22-1.37-.54-2.54-.95-3.5-.84-1.79-2.2-2.51-4.07-2.16l-2.77.52Z"/><path class="cls-2" d="M43.52,57.47l2.01,41.05c.08,3.27-.1,6.3-.53,9.06-.43,2.74-1.06,5.17-1.89,7.31-.83,2.12-1.8,3.78-2.9,5-1.1,1.2-2.28,1.85-3.54,1.92s-2.45-.42-3.58-1.47c-1.13-1.05-2.15-2.54-3.07-4.48-.92-1.93-1.68-4.17-2.28-6.72-.6-2.56-.97-5.4-1.12-8.53l-3.92-35.83,6.22-1.9,3.31,35.73c.14,3.46.58,5.95,1.32,7.5.74,1.55,1.61,2.28,2.63,2.19s1.85-.98,2.49-2.68c.64-1.71.91-4.31.8-7.83l-2.6-37.32,6.65-3.01Z"/><path class="cls-2" d="M69.25,115.74l-2.06.13-8.36-25.38-.16.02.82,28.88-7.54.29-2.5-63.93,8.27-1.57,11.45,47.11M69.25,115.74l1.98.12,8.44-25.37.16.02-.82,28.88,7.54.29,2.5-63.93-8.35-1.59-11.36,47.13"/><path class="cls-2" d="M97.91,121.57l1.38-15.73-7.11-48.37,7.18,1.54,3.63,33.58.12.02,6.86-29.33,6.63,1.42-11.25,41.81-1.68,15.32-5.77-.25Z"/><path class="cls-2" d="M137.2,85.47l-4.85-.69.21-1.91c.21-1.95.13-3.69-.26-5.22s-1.23-2.43-2.52-2.65c-.7-.12-1.29.02-1.77.41-.48.39-.89.91-1.22,1.56-.34.71-.6,1.53-.79,2.46-.19.93-.33,1.9-.43,2.92-.11,1.18-.18,2.17-.2,2.96-.02.79.04,1.5.18,2.13.14.63.38,1.19.72,1.68.33.49.81.99,1.41,1.5l3.49,2.95c1,.81,1.77,1.71,2.32,2.7.55.98.94,2.08,1.17,3.3.19,1.26.26,2.66.2,4.2-.06,1.53-.2,3.26-.43,5.17-.26,2.19-.63,4.19-1.12,6.02-.48,1.81-1.09,3.33-1.83,4.57-.77,1.28-1.7,2.27-2.79,2.97-1.1.7-2.38,1.03-3.86.97-1.13-.04-2.15-.39-3.08-1.04-.94-.66-1.72-1.55-2.34-2.69-.63-1.15-1.1-2.48-1.41-4-.31-1.54-.39-3.21-.24-5.02l.24-2.9,4.93.38-.22,2.41c-.13,1.4.01,2.66.43,3.8.41,1.13,1.22,1.72,2.42,1.79.8.04,1.44-.1,1.92-.44.48-.33.88-.83,1.19-1.49.32-.66.55-2.02.7-2.97.15-.95.29-1.46.42-2.65.15-1.39.24-2.54.28-3.45.04-.91,0-1.66-.14-2.24-.16-.58-.4-1.07-.72-1.46s-.76-.83-1.32-1.3l-3.28-2.71c-2.02-1.67-3.32-3.76-3.86-6.28-.55-2.56-.68-5.73-.37-9.54.19-2.31.56-4.49,1.12-6.54.56-2.07,1.29-3.81,2.19-5.24.87-1.43,1.9-2.51,3.11-3.24,1.2-.72,2.58-.94,4.1-.65,1.28.25,2.4.89,3.36,1.92.95,1.02,1.72,2.27,2.32,3.74,1.16,3.01,1.53,6.24,1.12,9.69l-.49,4.1Z"/><polygon class="cls-1" points="137.85 45.17 137.85 66.33 118.88 59.78 118.88 47.35 109.62 44.29 109.62 57.92 69.48 44.29 28.67 56.95 28.67 44.29 19.19 47.56 19.19 60.22 0 66.33 0 45.6 27.35 16.8 63.74 29.45 63.74 35.56 74.77 35.56 74.77 29.45 110.28 16.8 137.85 45.17"/><path class="cls-1" d="M69.59,0l-32.42,18.11,28.67,10.47v4.8h6.62v-5.24l28.67-10.04L69.59,0ZM64.29,21.82v-9.16h9.93v9.16h-9.93Z"/></g></svg>