<?xml version="1.0" encoding="UTF-8"?><svg id="Layer_2" xmlns="http://www.w3.org/2000/svg" viewBox="0 0 82.19 41.02"><defs><style>.cls-1{fill:#fff;}</style></defs><g id="Layer_1-2"><path class="cls-1" d="M24.77,0c-.87.1-1.59.88-1.72,1.72V0h1.72Z"/><g id="Pr"><rect x="42.51" y="2.44" width="18.42" height="18.42" rx="3.49" ry="3.49"/><path class="cls-1" d="M47.39,7.86c0-.06.02-.09.08-.09.43-.01,1.28-.03,2.12-.03,2.22,0,3.04,1.24,3.04,2.49,0,1.82-1.41,2.61-3.14,2.61h-.72v2.35c0,.06-.02.09-.09.09h-1.2c-.06,0-.09-.02-.09-.08v-7.33ZM48.78,11.61c.19.01.34.01.72.01.96,0,1.77-.32,1.77-1.36,0-.84-.59-1.33-1.65-1.33-.4,0-.72.01-.85.02v2.65Z"/><path class="cls-1" d="M54.72,9.63c.07,0,.1.02.13.09.06.15.1.43.11.69.39-.48,1.04-.89,1.83-.89.07,0,.09.01.09.08v1.21c0,.06-.02.08-.1.08-.81-.02-1.49.26-1.75.61v3.68c0,.07-.03.09-.1.09h-1.19c-.08,0-.1-.03-.1-.09v-3.95c0-.49-.01-1.16-.06-1.53,0-.06.01-.07.07-.07h1.08Z"/></g><g id="Ae"><rect x="42.51" y="22.6" width="18.42" height="18.42" rx="3.49" ry="3.49"/><path class="cls-1" d="M47.41,33.46l-.63,1.89c-.02.07-.06.09-.13.09h-1.14c-.07,0-.09-.03-.08-.11l2.36-6.71c.05-.11.08-.23.1-.62,0-.05.02-.08.07-.08h1.59c.06,0,.07.01.08.07l2.64,7.35c.01.07,0,.1-.07.1h-1.28c-.06,0-.09-.02-.11-.07l-.66-1.91h-2.73ZM49.77,32.21c-.24-.76-.78-2.35-1.01-3.15h-.01c-.18.77-.64,2.11-.98,3.15h2Z"/><path class="cls-1" d="M54.08,32.93c.03.8.56,1.44,1.73,1.44.51,0,.98-.09,1.42-.27.03-.02.07-.01.07.05v.95c0,.07-.02.1-.07.13-.43.21-.94.33-1.72.33-2.08,0-2.83-1.46-2.83-2.87,0-1.59.96-3,2.69-3s2.35,1.33,2.35,2.41c0,.32-.01.58-.05.71-.01.05-.03.07-.09.08-.16.03-.62.05-1.18.05h-2.32ZM55.78,31.95c.43,0,.58,0,.63-.01v-.09c0-.33-.23-1.06-1.1-1.06-.79,0-1.14.61-1.24,1.17h1.7Z"/></g><path d="M6.64,8.93c-.4,0-.72.01-.85.02v2.65c.19.01.34.01.72.01.96,0,1.77-.32,1.77-1.36,0-.84-.6-1.33-1.65-1.33Z"/><path d="M14.93,2.44H3.49c-1.93,0-3.49,1.56-3.49,3.49v11.45c0,1.93,1.56,3.49,3.49,3.49h11.45c1.93,0,3.49-1.56,3.49-3.49V5.92c0-1.93-1.56-3.49-3.49-3.49ZM6.52,12.83h-.72v2.35c0,.06-.02.09-.09.09h-1.2c-.06,0-.09-.02-.09-.08v-7.33c0-.06.02-.09.08-.09.43-.01,1.28-.03,2.12-.03,2.22,0,3.04,1.24,3.04,2.49,0,1.82-1.41,2.61-3.14,2.61ZM12.31,15.39c-.68,0-1.27-.13-1.61-.32-.06-.03-.08-.06-.08-.13v-1.09c0-.06.05-.08.09-.06.49.32,1.12.46,1.64.46.6,0,.88-.21.88-.5s-.22-.47-.93-.76c-1.25-.46-1.69-.97-1.69-1.8,0-.87.71-1.68,2.14-1.68.66,0,1.17.09,1.44.23.06.03.07.08.07.14v1.01c0,.06-.03.09-.1.07-.35-.19-.93-.33-1.43-.33-.61,0-.81.25-.81.49s.17.42.9.71c1.3.48,1.75,1,1.75,1.81,0,1.08-.85,1.75-2.25,1.75Z"/><g id="Lr"><rect x="21.25" y="22.6" width="18.42" height="18.42" rx="3.49" ry="3.49"/><path class="cls-1" d="M26.55,35.44c-.09,0-.11-.03-.11-.11v-7.3c0-.06.02-.1.09-.1h1.22s.07.03.07.08v6.19h3.36c.07,0,.09.03.08.08l-.19,1.08c-.01.08-.05.09-.1.09h-4.42Z"/><path class="cls-1" d="M33.17,29.8c.07,0,.1.02.13.09.06.15.1.43.11.69.39-.48,1.04-.89,1.83-.89.07,0,.09.01.09.08v1.21c0,.06-.02.08-.1.08-.81-.02-1.49.26-1.75.61v3.68c0,.07-.03.09-.1.09h-1.19c-.08,0-.1-.03-.1-.09v-3.95c0-.49-.01-1.16-.06-1.53,0-.06.01-.07.07-.07h1.08Z"/></g><g id="Ai"><rect x="0" y="22.6" width="18.42" height="18.42" rx="3.49" ry="3.49"/><path class="cls-1" d="M6.32,33.46l-.63,1.89c-.02.07-.06.09-.13.09h-1.14c-.07,0-.09-.03-.08-.11l2.36-6.71c.05-.11.08-.23.1-.62,0-.05.02-.08.07-.08h1.59c.06,0,.07.01.08.07l2.64,7.35c.01.07,0,.1-.07.1h-1.28c-.06,0-.09-.02-.11-.07l-.66-1.91h-2.73ZM8.68,32.21c-.24-.76-.78-2.35-1.01-3.15h-.01c-.18.77-.64,2.11-.98,3.15h2Z"/><path class="cls-1" d="M11.93,28.24c0-.47.33-.79.79-.79.49,0,.78.33.78.79s-.31.79-.79.79-.78-.32-.78-.79ZM12.01,29.88c0-.06.03-.08.09-.08h1.21c.07,0,.09.01.09.08v5.47c0,.07-.02.09-.1.09h-1.18c-.08,0-.11-.03-.11-.1v-5.46Z"/></g><g id="Id"><rect x="21.25" y="2.44" width="18.42" height="18.42" rx="3.49" ry="3.49"/><path class="cls-1" d="M28.08,15.17c0,.08-.02.1-.09.1h-1.2c-.07,0-.09-.03-.09-.1v-7.32c0-.08.03-.09.09-.09h1.2c.07,0,.09.02.09.09v7.32Z"/><path class="cls-1" d="M29.23,12.5c0-1.66,1.24-2.99,3.25-2.99.16,0,.3.01.49.03v-2.35c0-.06.02-.08.07-.08h1.25c.06,0,.06.02.06.07v6.91c0,.23.02.53.05.73,0,.06-.01.08-.07.1-.74.32-1.48.45-2.16.45-1.66,0-2.93-.96-2.93-2.88ZM32.98,10.75c-.15-.06-.33-.08-.54-.08-1.02,0-1.78.65-1.78,1.76,0,1.25.74,1.76,1.66,1.76.23,0,.46-.02.66-.09v-3.35Z"/></g><path d="M76.28,8.7c.96-1.04.21-2.78-1.2-2.78h-1.65l-.05.05v3.25h1.92c.27,0,.8-.32.99-.52Z"/><path d="M69.24,11.76c.03.73.73,1.56,1.49,1.56h1.85v-3.3h-1.85c-.85,0-1.53.94-1.49,1.74Z"/><path d="M69.46,14.92c-.8,1.41.64,2.96,2.11,2.33.47-.2,1.01-.83,1.01-1.36v-1.78h-1.92c-.42,0-1,.46-1.2.82Z"/><path d="M70.87,5.92c-1.42,0-2.16,1.74-1.2,2.78.19.2.71.52.99.52h1.92v-3.25l-.05-.05h-1.65Z"/><path d="M75.04,10.01c-.92,0-1.66.74-1.66,1.66s.74,1.66,1.66,1.66,1.66-.74,1.66-1.66-.74-1.66-1.66-1.66Z"/><path d="M78.7,2.44h-11.45c-1.93,0-3.49,1.56-3.49,3.49v11.45c0,1.93,1.56,3.49,3.49,3.49h11.45c1.93,0,3.49-1.56,3.49-3.49V5.92c0-1.93-1.56-3.49-3.49-3.49ZM73.81,13.79l-.44-.29v2.53c-.1.97-.93,1.86-1.86,2.09-2.68.65-4.24-2.82-2-4.37l.02-.07c-1.44-.87-1.44-3.12-.02-4.02l.02-.07c-1.83-1.15-1.23-4.01.89-4.41,1.54,0,3.27-.16,4.8-.05,1.65.12,2.73,1.79,2.13,3.35-.19.49-.54.83-.93,1.17.5.28.9.88,1.02,1.44.48,2.14-1.74,3.73-3.63,2.7Z"/><path d="M76.73,30.49c-.58-.36-1.23-.5-1.91-.46-1.75.11-3.21,1.81-2.44,3.54.78,1.73,3.22,2.13,4.64.95,1.38-1.14,1.2-3.1-.29-4.04ZM76.57,33.13c-.6,1.14-2.4,1.14-3.01,0-.57-1.05.33-2.18,1.44-2.2h.11c1.12.01,2.03,1.13,1.46,2.2Z"/><path d="M78.7,22.6h-11.45c-1.93,0-3.49,1.56-3.49,3.49v11.45c0,1.93,1.56,3.49,3.49,3.49h11.45c1.93,0,3.49-1.56,3.49-3.49v-11.45c0-1.93-1.56-3.49-3.49-3.49ZM79.77,33.23c-.13,2.34-2.26,4.01-4.51,4.11-2.2.09-4.5-1.3-4.89-3.56-.04-.25-.06-.47-.02-.72l-2.64,2.15c-1.11.75-2.08-.47-1.12-1.37l4.83-3.58v-.02c-.3,0-.59,0-.89,0-.55,0-1.15.04-1.69.01-.52-.03-.91-.46-.77-.99.12-.44.54-.63.97-.66h5.3s-1.63-1.31-1.63-1.31c-.49-.43,0-.97.5-1.02h.24c.16.03.31.08.43.18,1.37,1.09,2.81,2.11,4.18,3.21.88.7,1.49,1.6,1.66,2.73l.04.36c0,.15,0,.31,0,.47Z"/></g></svg>