<?xml version="1.0" encoding="UTF-8"?><svg id="Layer_2" xmlns="http://www.w3.org/2000/svg" xmlns:xlink="http://www.w3.org/1999/xlink" viewBox="0 0 195.84 268.44"><defs><style>.cls-1{fill:none;}.cls-2{clip-path:url(#clippath);}</style><clipPath id="clippath"><rect class="cls-1" x="0" y=".2" width="195.84" height="268.24" rx="97.92" ry="97.92"/></clipPath></defs><g id="Layer_1-2"><path d="M195.54,55.82c-.41-.39-.58-.93-.69-1.49-.09-.48-.75-1.45-1.11-1.65-.36-.21-.7-.45-1.05-.67-.12-.07-.25-.16-.39-.18-.97-.1-1.92-.5-2.94-.17-.34.11-.66.22-.98.36-.11.05-.3-.06-.44-.1.03-.13.02-.31.1-.38.5-.45,1.03-.88,1.55-1.3.04-.04.12-.04.18-.04.34,0,.69,0,1.03,0,.29,0,.52-.08.67-.37.14-.27-.07-.39-.18-.55-.27-.38-.53-.77-.79-1.16-.27-.39-.65-.61-1.09-.7-.21-.04-.51,0-.4.3.15.41-.13.65-.25.95-.11.25-.35.45-.42.7-.1.33-.34.47-.59.49-.34.02-.56.14-.67.46-.1.3-.34.41-.6.31-.3-.11-.24-.38-.21-.66.07-.61.21-1.16.6-1.64.13-.16.19-.38.25-.58.16-.55.18-1.18.46-1.64.52-.86.29-1.56-.23-2.23-.53-.68-1.14-1.3-1.72-1.95-.16-.17-.3-.36-.44-.54-.59-.74-1.17-1.49-1.77-2.22-.09-.11-.29-.15-.44-.18-.49-.1-.82-.33-.96-.88-.17-.62-.47-1.18-.94-1.64-.89-.87-1.73-1.78-2.61-2.65-.44-.43-.94-.78-1.4-1.19-.27-.25-.54-.15-.73.04-.11.11-.1.36-.12.56-.03.33.07.75-.1.99-.33.48-.79.87-1.2,1.29-.26.27-.52.54-.78.8-.25.24-.49.52-.79.69-.22.13-.45.03-.44-.32,0-.32,0-.65,0-.98,0-.53.14-.74.61-.92.18-.07.36-.12.54-.15.98-.14,1.32-.91,1.63-1.71.07-.17.11-.38.07-.55-.19-.75-.5-1.48-1.07-2-.5-.46-1-.9-1.4-1.46-.09-.12-.2-.23-.31-.32-.7-.55-1.4-1.09-2.1-1.62-.41-.31-.58-.26-.84.21-.09.17-.23.35-.22.52.03.75-.41,1.31-.8,1.82-.63.82-1.49,1.46-2.01,2.4-.07.12-.21.2-.32.29-.38.34-.79.66-1.11,1.04-.2.24-.37.34-.63.21-.46-.22-.65.14-.86.43-.22.3,0,.52.18.73.1.11.2.22.31.32.75.65,1.52,1.27,2.25,1.93.7.63,1.23,1.45,2.2,1.75.44.14.66.59.92,1,.28.46.76.79,1.12,1.2.29.33.51.73.81,1.06.25.28.58.49.85.76.67.68,1.36,1.34,2,2.05.67.75,1.3,1.55,1.94,2.34.9,1.1,1.79,2.22,2.7,3.31.16.18.29.51.66.33.31-.15.53-.34.49-.73-.05-.43.16-.75.46-1.01.2-.18.42-.35.64-.52.83-.65,1.65-1.31,2.49-1.95.23-.17.5-.43.78-.16.27.26.17.57-.03.87-.14.21-.24.46-.32.7-.16.48-.29.97-.44,1.46-.19.6-.39,1.2-.59,1.8-.11.34-.23.68-.36,1.02-.17.45-.41.88-.51,1.35-.07.32-.14.58-.35.85-.13.16.04.56.02.84,0,.13-.15.25-.21.39-.13.27-.31.53-.35.81-.14.95-.05,1.91,0,2.86,0,.13.12.26.2.38.22.36.53.69.65,1.08.22.67.53,1.22,1.18,1.49.58.24,1.11.85,1.82.29.1-.08.29-.05.43-.03.36.04.64-.08.89-.36.35-.39.41-.37.79.03.48.5.75.57,1.34.3.22-.1.39-.31.59-.46.21-.15.45-.27.66-.43.55-.45,1.16-.61,1.84-.4.05.02.12-.02.18-.05.4-.16.46-.35.25-.74-.19-.36-.36-.72-.56-1.07-.21-.37-.42-.75-.67-1.08-.39-.51-.82-.46-1.14.09-.11.18-.24.36-.33.55-.3.59-.83.88-1.4,1.05-.25.08-.65.03-.83-.14-.39-.37-.76-.81-1.01-1.3-.28-.54-.18-1.22.1-1.7.36-.61.74-1.27,1.42-1.64.35-.19.63-.56.99-.67.61-.18,1.18-.38,1.69-.75.08-.05.2-.07.3-.06.42.03.84.05,1.25.12.25.05.51.15.73.29.57.36.49,1.05.66,1.59.16.53.07,1.13.1,1.7-.02,0-.04,0-.06,0,0,.11,0,.22,0,.33-.01.38.28.47.54.61.31.16.25-.19.39-.28.09-.05.16-.18.24-.2.69-.12.66-.72.8-1.22.08-.3.02-.52-.21-.74ZM170.67,36.01c-.18.25-.42.46-.65.67-.09.08-.21.16-.32.16-.39-.01-.79-.04-1.18-.1-.15-.02-.32-.1-.44-.21-.23-.19-.41-.44-.63-.63-.54-.46-.39-1.04.07-1.41.28-.23.5-.42.62-.82.2-.69,1.4-.91,1.9-.4.29.3.54.65.77,1,.14.22.22.48.35.81-.16.32-.3.65-.49.93ZM172.58,33.03c-.34.32-.71.19-1.06-.12-.37-.32-.72-.66-1.07-1-.28-.27-.25-.53.03-.81.17-.17.34-.38.43-.61.25-.66.9-.59,1.37-.77.33-.12.6.29.78.62.23.43.48.85.69,1.22-.02.14-.01.22-.05.26-.36.41-.71.83-1.11,1.2ZM177.4,43.6c-.25-.09-.54-.09-.76-.23-.47-.31-1.02.03-1.48-.22-.72-.4-1.43-.85-1.82-1.62-.14-.29-.16-.65-.19-.99-.01-.13.07-.3.16-.41.29-.33.59-.66.91-.96.86-.8,1.79-.4,2.26.52.2.39.32.83.48,1.24.06.15.12.42.18.42.28.01.65.04.84-.12.4-.33.74-.76,1.04-1.2.09-.13.05-.45-.05-.58-.1-.13-.4-.25-.53-.18-.4.19-.63-.02-.88-.26-.25-.25-.58-.45-.79-.73-.17-.23-.22-.55-.33-.84.04,0,.09-.02.13-.03-.16-.56.15-.85.56-1.09.11-.06.21-.13.31-.22.65-.57.69-.66,1.47.04.62.55,1.23,1.12,1.39,2.01.04.23.07.46.13.68.05.22.09.46.21.65.24.41.5.46.85.14.24-.22.42-.17.57.05.14.2.29.47.03.69-.5.43-1.03.81-1.5,1.26-.29.28-.46.69-.75.97-.28.26-.69.39-.97.65-.38.35-1.01.53-1.48.36ZM184.18,44.4c-.34.06-.49.28-.69.5-.25.28-.54.53-.82.78-.73.66-1.65,1.07-2.31,1.83-.58.67-1.58.41-1.84-.43-.09-.29-.07-.54.2-.8.82-.78,1.71-1.46,2.57-2.18.31-.26.45-.73.96-.73.05,0,.12-.12.15-.19.24-.66.77-.82,1.38-.94.76-.15,1.23.22,1.23,1.03,0,.56-.3,1.01-.84,1.12ZM185.59,60.2c-.21.45-.7.58-1.02.6-.65,0-1.24-.56-1.26-1.08-.02-.47,0-.95,0-1.43,0-.13.02-.26.06-.37.17-.46.34-.91.53-1.36.12-.27.25-.54.42-.78.11-.15.28-.12.3.1.03.44.02.88.06,1.32.04.56.13,1.1.49,1.55.04.05.09.09.13.14.36.37.5.86.29,1.31Z"/><path d="M165.07,24.41c.36-.43.09-.82-.11-1.16-.34-.59-.7-1.18-1.15-1.68-.35-.41-.83-.72-1.27-1.03-.3-.21-.66-.33-.97-.54-.68-.46-1.33-.96-2.02-1.39-.26-.16-.61-.17-.92-.25-.05.26-.11.53-.14.79-.05.38.02.83-.15,1.12-.71,1.2-1.49,2.35-2.26,3.5-.15.23-.36.44-.58.59-.15.1-.44.18-.56.1-.68-.46-1.37-.29-2.03-.06-.5.17-.89.02-1.31-.2-.2-.11-.42-.2-.6-.33-.37-.28-.75-.55-1.06-.89-.12-.13-.16-.47-.08-.65.24-.59.52-1.16.83-1.72.37-.68.62-.73,1.27-.34.11.06.22.12.34.16.59.25,1.05.62,1.2,1.3.03.15.16.34.29.4.14.07.43.07.49-.02.36-.47.68-.97.98-1.48.11-.18.29-.39.01-.62-.21-.18-.35-.32-.7-.21-.83.26-1.49-.21-2.11-.72-.39-.32-.29-.78-.22-1.14.08-.37.33-.72.57-1.03.37-.47,1.23-.6,1.7-.22.47.38.89.84,1.28,1.31.35.42.61.91.94,1.34.1.13.27.24.42.26.13.02.65-.95.62-1.11-.04-.25-.04-.52-.12-.75-.1-.3-.2-.68-.42-.83-.71-.48-1.48-.89-2.23-1.3-.94-.51-1.9-.98-2.83-1.5-.39-.22-.76-.44-1.24-.39-.41.05-.68-.11-.78-.56-.08-.36-.34-.58-.68-.71-.85-.33-1.73-.6-2.55-1-1.24-.61-2.43-1.31-3.63-1.97-.3-.16-.55-.28-.8.12-.12.19-.41.28-.63.41-.89.53-.97.55-1.19-.57-.1-.51-.29-.93-.78-1.13-.5-.21-.99-.42-1.49-.61-1.21-.47-2.42-.93-3.63-1.4-.54-.21-1.06-.47-1.62,0-.09.07-.47-.02-.52-.12-.3-.71-.91-.89-1.56-1.09-.43-.13-.81-.43-1.21-.66-.31-.18-.61-.22-.97-.12-.36.1-.74.2-1.11.19-1.11-.04-1.88.67-2.49,1.4-.62.74-1.09,1.67-1.22,2.71-.03.21-.18.45-.35.58-.14.11-.41.14-.58.08-.11-.04-.17-.3-.21-.48-.07-.34-.11-.69-.17-1.04-.04-.21-.12-.41-.12-.62-.04-1.21-.09-2.42-.49-3.59-.22-.64-.31-.82-.78-.85-.51-.04-.86.2-1.04.67-.23.61-.92.98-.86,1.74,0,.06-.11.12-.16.19-.61.91-1.32,1.78-1.8,2.76-.56,1.16-1.29,2.09-2.31,2.82-.11.07-.21.22-.23.35-.07.46.84,1.23,1.21.98.36-.25.62-.18.98-.04.24.09.62.05.81-.1.12-.09,0-.5-.02-.77,0-.06-.05-.12-.07-.18-.26-.68-.02-1.26.37-1.79.09-.12.36-.13.55-.12.31.02.61.15.92.15.62,0,1.13.41,1.23.85.11.49.27,1.12-.07,1.64-.05.08-.16.14-.24.19-.51.34-.52.51,0,.87.17.11.38.17.58.22.24.06.49.08.74.13.62.11,1.2.39,1.86.26.2-.04.47-.02.63.08.53.35,1.02.76,1.53,1.13.11.08.24.14.37.16.57.08,1.15.14,1.72.2.24.02.48,0,.71,0,.43.02.95-.09,1.26.12.62.41,1.26.74,1.97.94,1,.28,1.86.99,2.95,1.03.09,0,.18.09.27.15.16.1.3.25.47.31.38.14.8.4,1.15.33.51-.11,1.01-.41,1.45-.72.35-.25.5-.68.44-1.15-.03-.23-.17-.34-.4-.26-.27.1-.54.2-.81.28-.76.23-1.54.45-2.31.05-.46-.24-.94-.47-1.34-.8-.42-.35-.46-.87-.15-1.27.23-.31.52-.55.34-1-.03-.07.06-.2.12-.28.58-.67.58-.67,1.43-.3.06.02.12.05.18.06.71.09,1.18.49,1.43,1.18.07.19.17.31.43.2.25-.11.42-.19.5-.49.12-.43.36-.82.5-1.24.05-.17.02-.41-.07-.57-.15-.27-.38-.35-.7-.19-.27.13-.61.26-.88.2-.46-.1-.89-.33-1.33-.53-.48-.22-.53-.37-.41-.92.03-.13.02-.26.05-.38.16-.51.27-1.12.79-1.32.56-.21,1.23-.27,1.76.11.51.36.94.86,1.41,1.29.35.33.7.66,1.06.98.12.11.3.16.42.27.52.51,1.09.49,1.74.29.41-.13.86-.17,1.29-.15.47.02.85.49.7.88-.22.62-.49,1.24-.86,1.77-.25.35-.42.65-.4,1.09,0,.23-.09.49-.19.71-.18.36-.42.68-.61,1.03-.18.34-.27.74-.49,1.04-.2.27-.52.46-.81.66-.13.09-.32.09-.47.16-.25.13-.34.3-.23.62.12.35.29.59.64.72.44.16.93.29,1.29.57.41.31.85.34,1.29.42.38.07.59-.28.46-.68-.07-.22-.16-.44-.18-.67-.04-.41.06-.78.26-1.16.4-.78.63-1.65,1.12-2.39.2-.3.43-.63.47-.97.07-.48.09-.92.57-1.19.1-.05.08-.31.12-.47.11-.44.5-.61.91-.48.71.23,1.1.73,1.32,1.43.07.24.21.46.31.69.1.24.25.45.52.33.25-.1.61-.06.63-.51,0-.13.22-.24.35-.36.18.22.4.42.51.67.06.14,0,.46-.11.54-.24.17-.32.35-.35.63-.02.17-.14.36-.26.5-.51.58-.84,1.27-1.12,1.99-.09.23-.24.45-.37.66-.24.37-.52.71-.75,1.09-.25.4-.48.79-1,.89-.22.04-.43.17-.61.29-.07.05-.12.23-.08.3.2.43.44.8.91,1.01.77.36,1.52.77,2.25,1.2.47.28.86.69,1.34.94,2.08,1.11,4.08,2.34,5.9,3.86.14.12.34.16.51.24.2.09.41.17.61.27.56.3,1.01.86,1.75.81.7-.12,1.4-.25,2.09-.37.27-.05.43-.2.57-.45.11-.21.33-.47.52-.49.43-.03.65-.22.78-.6.05-.14.15-.26.25-.36.27-.28.64-.5.55-1-.02-.09.15-.2.21-.31.11-.18.27-.36.29-.55.07-.56.57-1.09.13-1.69-.04-.05-.02-.19.02-.25ZM119.89,7.99c-.11-.02-.27-.16-.28-.26-.06-.54.16-.95.46-.95.32,0,.47.15.46.47,0,.35-.35.78-.64.74ZM133.25,9.11c-.09.07-.17.31-.12.4.22.41-.07.61-.25.9-.23.39-.36.85-.53,1.27-.33.82-.43.91-1.25.88-.43-.02-.74.12-1.05.44-.45.45-1,.77-1.66.75-.08,0-.18-.02-.25,0-.99.33-1.49-.4-2.04-1.01-.09-.1-.18-.31-.14-.41.16-.36,0-.69.01-1.03.02-.94-.05-1.92.5-2.76.06-.08.07-.2.09-.3.15-.79.61-1.39,1.13-1.96.48-.54,1.09-.64,1.72-.51.63.13,1.13.51,1.5,1.06.2.3.39.62.63.88.16.17.44.37.61.33.19-.04.33-.34.47-.55.04-.06.03-.17.03-.25,0-.24,0-.55.29-.54.17,0,.4.22.48.39.13.27.17.6.24.9-.02.44-.07.82-.43,1.12ZM163.13,24.12c-.04.17-.15.36-.11.5.19.71-.25,1.15-.64,1.61-.18.21-.43.39-.52.63-.26.68-.83,1.07-1.35,1.44-.39.27-.93.3-1.28.41-1.2-.12-2.07-.62-2.4-1.73-.02-.08-.05-.19-.01-.24.29-.45.6-.9.91-1.34.13-.19.3-.35.42-.54.13-.21.21-.45.34-.66.3-.48.62-.95.95-1.41.11-.15.27-.26.39-.41.14-.17.29-.35.37-.55.19-.51.56-.66.99-.38.37.23.73.48,1.13.67.55.26.76.78.95,1.29.07.19-.09.47-.14.71Z"/><path d="M118.22,3.29c-.14-.26-.31-.53-.37-.81-.11-.5-.48-.7-.88-.82-.38-.11-.79-.1-1.18-.15-.25-.03-.49-.07-.73-.12-.65-.15-1.29-.25-1.97-.18-.44.04-.93.05-1.34-.1-.56-.2-1.12-.2-1.69-.24-.27-.02-.59.05-.81-.06-.79-.39-1.66-.26-2.47-.31-.78-.05-1.56.12-2.3-.28-.13-.07-.27-.13-.41-.14-.21-.02-.45-.05-.63.03-.34.15-.62.28-1,.06-.17-.1-.44-.03-.67-.03-.38,0-.75.04-1.12.05-.16,0-.32,0-.47-.02-.3-.03-.61-.06-.92-.09-.22-.02-.5-.14-.65-.04-.4.27-.74.18-1.13.03-.14-.05-.41-.04-.49.05-.32.39-.62.81-.87,1.26-.16.3-.33.65-.13,1.04.19.37.26.38.62.17.6-.36,1.21-.71,1.84-1.02.59-.29.74-.2,1.07.39.16.3.25.57.07.9-.09.18-.12.41-.11.62.02.69.13,1.37.11,2.06-.03.92-.17,1.83-.23,2.75-.03.48-.16.85-.66,1.05-.45.18-.44.72-.02.93.34.17.7.28,1.06.38.1.03.25-.02.35-.09.34-.21.68-.2,1.03-.08.45.16.84-.07,1.18-.28.23-.14.35-.4.06-.69-.18-.19-.37-.45-.4-.7-.13-.85-.2-1.7-.27-2.56-.02-.2.07-.42.11-.62.03-.15.16-.31.11-.42-.24-.65.07-1.27.02-1.91-.03-.34-.02-.69,0-1.04.03-.3.1-.64.46-.68.62-.07,1.23-.08,1.68.5.14.19.28.39.47.52.21.15.47.25.73.31.11.02.25-.13.37-.2.23-.14.46-.19.56.12.11.34.25.72.2,1.05-.09.74.09,1.53-.33,2.23.16.44-.03.82-.14,1.23-.03.14-.02.32.04.44.33.67.07,1.14-.43,1.57-.1.08-.19.17-.27.27-.41.53-.2,1.05.45,1.15.51.08,1.03.15,1.54.21.24.03.48.04.73.04.31,0,.62-.07.92-.03.6.08,1.19.32,1.77.29.47-.03.89.05,1.33.15.45.11.71-.19.57-.67-.09-.32-.26-.61-.39-.92-.33-.77.19-1.45.22-2.18,0-.18.11-.36.16-.55.08-.3.27-.53.58-.47.59.1,1.17.24,1.75.39.15.04.27.2.39.32.13.12.23.27.37.35.1.05.31.05.38-.03.48-.5.76-1.04.52-1.79-.19-.6-.39-.75-.98-.57-.42.12-.84.2-1.27.3,0-.03-.01-.06-.02-.08-.21,0-.42,0-.63,0-.53-.02-.65-.14-.71-.69-.01-.11,0-.23-.04-.32-.25-.58.02-1.07.31-1.51.22-.34.54-.66,1.03-.53.5.13,1.01.24,1.51.38.16.04.31.13.43.23.39.31.78.62,1.14.96.27.26.51.23.75,0,.24-.23.24-.48.09-.76ZM110.42,5.62c-.08.16-.02.38-.04.58-.05.34-.13.67-.17,1-.04.38-.11.78-.07,1.15.07.6-.28,1.01-.54,1.47-.03.05-.08.1-.14.12-.47.16-1.34-.66-1.27-1.16.04-.3-.02-.62-.04-.93,0-.1-.12-.24-.08-.3.43-.73.11-1.52.22-2.28.07-.5.21-1,.28-1.5.04-.25.05-.5,0-.75-.09-.53.26-.81.58-1.06.25-.19.57-.39.92-.14.35.25.72.47.68,1.08-.32.82.09,1.82-.34,2.71Z"/><path d="M98.06,8.36c-.16.9-.62,1.58-1.4,2.04-.09.05-.21.15-.29.12-.82-.27-1.6.36-2.46.07-.48-.16-1.11-.04-1.61.13-.57.19-1.08.1-1.62,0-.06-.01-.14-.05-.18-.03-.25.17-.5.1-.58-.14-.08-.26-.15-.69,0-.85.65-.71.6-1.55.54-2.4-.04-.56-.1-1.11-.11-1.67,0-.36.09-.73.07-1.09-.06-.87-.04-1.77-.47-2.57-.09-.17-.22-.32-.37-.44-.56-.46-.74-.39-1.15.24-.46.71-.37,1.45-.34,2.25.04.83.41,1.58.39,2.41,0,.35,0,.69,0,1.04.01.23.07.46.09.69.02.15.07.37,0,.44-.45.44-.33,1.18-.75,1.56-.36.33-.54.89-1.2.92-.59.03-1.16.29-1.74.44-.13.03-.28,0-.42-.02-.15-.01-.31-.09-.43-.05-.58.2-1.03-.18-1.53-.32-.13-.03-.28-.13-.36-.24-.32-.43-.62-.86-.9-1.31-.29-.48-.49-.99-.44-1.58.02-.24-.09-.5-.13-.75-.04-.21-.09-.42-.1-.63-.02-.33,0-.67-.02-.99-.05-.49-.17-.98-.19-1.48-.03-.62-.4-1.02-.77-1.42-.54-.6-.4-1.03.38-1.24.3-.08.57-.39.89-.03.02.03.13,0,.17-.03.41-.35.89-.21,1.34-.18.73.03.89.44.53,1.09-.15.26-.24.61-.23.91.04.94.18,1.88.22,2.82.03.8.21,1.56.39,2.33.18.8.8,1.1,1.35,1.5.05.03.13.05.18.04.72-.27,1.61-.27,1.98-1.14.16-.38.18-.82.24-1.24.02-.12-.02-.25-.03-.37.03,0,.07,0,.1-.01-.13-.79-.27-1.58-.39-2.38-.04-.26-.07-.52-.05-.77.06-.88-.26-1.58-.92-2.15-.54-.46-.49-.77.14-1.1.09-.05.19-.14.28-.14.79.01,1.57-.38,2.36-.07.11.04.25.09.36.07.84-.13,1.68-.29,2.52-.41.63-.09,1.25-.14,1.79.34.33.3.33.49-.04.72-.15.09-.34.23-.38.38-.13.51-.23,1.03-.29,1.56-.06.51-.04,1.03-.06,1.55,0,.06-.01.13,0,.19.3,1.18.15,2.41.37,3.59.06.31.6.66,1.04.73,1.04.17,1.79-.43,2.56-.98.22-.16.4-.37.58-.57.19-.22.39-.41.7-.27.26.11.45.53.39.86Z"/><path d="M79.98,11.16c0,.58,0,.57-.57.7-.22.05-.43.16-.63.26-.28.13-.53.29-.89.16-.15-.06-.39.08-.57.17-.28.14-.52.11-.76-.07-.29-.21-.15-.45-.06-.69.07-.18.17-.35.23-.53.07-.24.18-.51.14-.74-.18-.9-.4-1.79-.64-2.67-.03-.13-.22-.29-.34-.29-.12,0-.31.16-.34.29-.09.32-.11.67-.15,1.01-.08.72-.16,1.44-.24,2.17-.05.43-.09.85-.13,1.28-.04.5-.49.61-.8.81-.29.19-.52-.12-.67-.33-.39-.57-.76-1.18-1.12-1.77-.42-.69-.82-1.39-1.26-2.06-.09-.13-.37-.22-.52-.18-.24.06-.13.28-.09.48.08.42.09.86.16,1.28.04.25.14.48.23.72.08.24.15.49.28.7.23.35.47.7.76,1.01.36.37.4.48.04.82-.36.34-.76.56-1.3.41-.22-.06-.48.05-.73.08-.17.02-.44.11-.5.03-.13-.16-.23-.42-.21-.64.01-.27.19-.52.22-.79.04-.37.09-.76,0-1.11-.2-.82-.63-1.58-.53-2.48.02-.23-.12-.49-.24-.71-.29-.52-.26-1.11-.38-1.67-.24-1.09-1.18-1.5-2.12-.96-.11.06-.22.11-.34.14-.84.2-1.43.61-1.72,1.55-.13.45-.16.82-.06,1.22.07.27.24.54.41.77.2.26.48.21.75.12.29-.09.29-.33.28-.58-.02-.68.39-1.2.63-1.79.03-.07.15-.15.24-.16.36-.03,1.25.43,1.32.73.14.6.28,1.2-.21,1.74-.24.26-.39.64-.66.84-.32.23-.73.35-1.1.48-.08.03-.23-.1-.29-.07-.47.28-.84.01-1.28-.1-.46-.12-.77-.4-.99-.73-.41-.64-.79-1.32-.5-2.15.04-.12.06-.25.06-.38,0-.99.61-1.53,1.38-1.95.46-.25.9-.52,1.35-.79.33-.2.67-.28,1.06-.16.16.05.4.04.53-.05.55-.38,1.2-.47,1.8-.68,1.22-.43,1.56-.26,2.25.85.59.96,1.25,1.87,1.85,2.81.18.28.41.24.66.25.32.01.3-.27.36-.45.08-.23.1-.49.15-.74-.03,0-.06,0-.08-.01.04-.25.11-.49.11-.74.01-.51.22-1,.03-1.52-.05-.14.1-.36.15-.54.07-.24.12-.49.22-.73.07-.16.16-.36.3-.42.5-.22,1.01-.39,1.53-.56.35-.11.71-.24,1.07-.25.57-.02.73.37.49.91-.23.54-.51,1.03-.24,1.75.38,1,.46,2.11.72,3.16.2.78.47,1.54.75,2.29.08.23.27.43.45.59.21.18.32.37.32.66Z"/><path d="M61.92,16.78c-.28-.46-.47-1-1.07-1.19-.23-.07-.43-.26-.61-.45-.43-.45-.76-1-1.25-1.36-1.11-.83-1.66-2.22-2.88-2.92-.02,0-.02-.04-.03-.05-.56-.54-1.11-1.09-1.69-1.62-.27-.25-.5-.17-.71.15-.12.18-.27.33-.37.51-.07.13-.16.35-.1.44.25.4.16.78.02,1.17-.04.11-.09.27-.04.36.36.64.21,1.32.21,1.99,0,.83.06,1.67.11,2.5.03.49.1.98.12,1.47,0,.18-.04.38-.1.56-.12.4-.27.8-.41,1.19-.08.22-.22.47.08.6.31.13.64.45.98.15.3-.26.6-.41.99-.43.17-.01.35-.14.51-.25.68-.51.66-.86-.07-1.26-.02,0-.03-.02-.05-.03-.65-.37-.93-1.32-.49-1.92.24-.33.63-.53.96-.79.48-.38.98-.35,1.44,0,.61.46.91,1.24.74,1.83-.17.58-.11.66.55.65.49-.12,1.03-.25,1.57-.38.08-.02.18-.06.21-.12.27-.48.68-.6,1.18-.54.22.03.29-.13.2-.27ZM55.35,14.26c-.26,0-.47-.05-.49-.36-.02-.28.21-.61.41-.61.36,0,.45.29.5.56.06.31-.16.4-.42.41Z"/><path d="M49.93,21.29c.4-.45.13-.9-.05-1.31-.11-.25-.35-.43-.53-.64-.17.22-.36.44-.51.68-.05.08,0,.21-.02.32-.08.5-.14,1.01-.61,1.33-.24.16-.57.29-.7.53-.34.65-1,.66-1.54.88-.26.11-.55.06-.75-.27-.31-.53-.69-1.01-1.02-1.53-.08-.13-.15-.35-.1-.48.24-.64.27-1.53,1.33-1.29.04,0,.09-.01.12-.03.36-.22.73-.27,1.14-.1.3.12.56-.07.68-.33.07-.15.03-.42-.05-.57-.26-.48-.57-.95-.87-1.41-.21-.32-.46-.33-.69-.01-.21.29-.46.58-.57.92-.28.86-1.12.7-1.68,1.04-.07.04-.29-.09-.37-.2-.33-.44-.68-.88-.93-1.37-.22-.44.07-1.44.41-1.5.46-.07.81-.28,1.18-.54.16-.12.44-.11.66-.1.27,0,.54.06.81.1,0-.01,0-.03,0-.04.21,0,.43.03.63,0,.28-.04.57-.16.59-.48.02-.19-.08-.46-.22-.6-.26-.27-.57-.51-.9-.68-.54-.29-1.11-.12-1.51.38-.08.1-.18.26-.25.26-.51-.05-.76.4-1.15.59-.3.15-.61.26-.9.42-.44.23-.89.46-1.31.72-.52.33-1.2.43-1.47,1.12-.16.42-.13.59.3.72.78.24,1.27.77,1.62,1.5.26.53.48,1.12.87,1.55.64.72.85,1.66,1.33,2.45.27.45.3.95.2,1.47-.1.52-.56.79-1.06.62-.75-.26-1.49-.55-2.26-.7-.39-.07-.71-.24-1.03-.42-.21-.12-.32-.3-.22-.59.13-.38.1-.79.42-1.12.44-.45.27-1.06.12-1.56-.24-.78-.66-1.51-1.47-1.79-.61-.21-1.28-.42-1.89.11-.1.09-.27.09-.41.16-.35.16-.87.04-.96.64,0,.06-.18.09-.27.13-.48.24-.95.52-1.44.72-.52.21-.71.81-1.29,1.02-.32.12-.6.54-.98.74-.31.16-.32.48-.03.66.27.17.56.35.85.4.47.07.76.36,1.03.69.35.41.67.86,1.01,1.3.01.02.02.03.04.05.52.84,1.08,1.67,1.57,2.53.2.36.33.79.37,1.2.05.58-.92,1.14-1.36.79-.66-.53-1.35-.98-2.11-1.36-1.27-.63-2.35-1.58-3.62-2.23-.11-.06-.2-.15-.32-.2-.43-.19-.87-.38-1.32-.56-.08-.03-.21,0-.29.05-.37.21-.53.81-.53,1.26,0,.81.57,1.41.69,2.19.17,1.04.82,1.96.89,3.05,0,.14.11.28.2.4.48.67.73,1.39.64,2.23-.05.46,0,.93.03,1.4.03.41.3.55.64.34.43-.27.86-.54,1.26-.85.24-.19.47-.43.63-.69.26-.45.1-1.01-.32-1.06-.57-.07-.8-.48-1.11-.86-.21-.26-.21-.5,0-.75.15-.17.37-.33.44-.53.26-.74.86-.91,1.5-.93.49-.02,1.09.68,1.24,1.26.08.31-.17.75.27.91.4.15.67-.21.96-.39.77-.46,1.39-1.13,2.2-1.56.85-.45,1.57-1.13,2.38-1.66.33-.22.49-.55.44-.85-.04-.21-.41-.35-.64-.51-.04-.03-.14.01-.19-.02-.25-.15-.55-.25-.72-.47-.31-.39-.57-.85-.82-1.29-.13-.23-.36-.46-.16-.77.21-.33.55-.3.86-.26.18.02.36.11.52.2.26.13.5.35.77.42.7.17,1.32.47,1.92.88.35.24.74.38,1.17.15.12-.06.32-.12.42-.07.32.17.49-.03.62-.24.3-.47.74-.74,1.21-.95,1.12-.5,2.05-1.34,3.17-1.84.52-.24,1.02-.55,1.53-.81.26-.13.74-.19.76-.34.11-.65,1.36-.72.81-1.68,0-.01,0-.05,0-.06ZM29.13,30.54s-.01.11-.03.12c-.11.04-.29.13-.34.08-.25-.21-.47-.46-.67-.71-.03-.04.09-.21.16-.31.03-.04.11-.04.14-.05.31,0,.79.6.74.87ZM37.07,22.18c-.08.33-.15.66-.23.99-.03.1-.07.24-.14.28-.55.29-1.1.57-1.67.81-.11.04-.36-.11-.45-.24-.28-.4-.53-.82-.75-1.25-.08-.16-.07-.39-.03-.57.18-.85,1.24-1.51,2.07-1.3.22.05.47.06.65.18.37.25.61.59.56,1.1Z"/><path d="M12.88,55.3c-.36.38-.77.73-.84,1.32-.02.18-.8.52-1.01.49-.4-.06-.51-.44-.51-.71,0-.71-.4-1.05-.92-1.4-.65-.44-1.31-.71-2.11-.66-.64.04-1.3-.05-1.95-.13-.22-.02-.43-.24-.63-.23-.6.05-1.19.14-1.77.29-.38.1-.69.35-.91.74-.4.69-.88,1.33-.82,2.21.06.99.73,1.59,1.55,1.73.23.04.67-.06.72-.21.1-.26.03-.63-.08-.91-.14-.35-.41-.64-.59-.98-.27-.51-.25-.55.21-.86.09-.06.18-.12.25-.19.38-.42.53-.4,1.06-.13.59.31.81.91,1.01,1.43.16.44-.02,1.02-.11,1.53-.03.16-.23.28-.35.42-.12.15-.33.3-.33.44.01.64-.46.75-.87.82-.8.15-1.61.18-2.37-.24-.37-.21-.75-.37-.8-.89-.02-.2-.15-.41-.28-.57-.29-.33-.42-.69-.32-1.05,0-.54,0-1,0-1.46,0-.12.07-.24.13-.35.34-.53.71-1.03.93-1.65.2-.54.69-.96,1.05-1.43.16-.21.41-.41.47-.65.13-.57.59-.86.92-1.25.08-.09.37-.11.49-.03.19.11.36.31.48.51.3.52.73.74,1.32.7.42-.03.84,0,1.27,0,.53-.02.79-.34.65-.85-.21-.74-.64-1.35-1.23-1.82-.1-.08-.37-.07-.49,0-.35.24-.59.05-.86-.13-.3-.2-.17-.48-.05-.68.36-.63.5-1.43,1.23-1.8.08-.04.11-.18.18-.26.27-.31.63-.27.8.11.1.23.09.51.15.77.06.26.1.54.23.78.57,1.08,1.2,2.14,1.75,3.24.2.41.39.78.76,1.06.2.16.39.34.54.55.47.68,1.1.74,1.82.53.6-.17.68-.07.72.56.04.52-.13.92-.47,1.28Z"/><path d="M24.56,39.81c-.14-.26-.13-.62-.19-.93-.02-.12-.05-.25-.11-.36-.29-.49-.62-.94-1.03-1.34-.37-.36-.7-.78-1.05-1.17-.13-.14-.27-.28-.4-.41-.83-.83-1.82-1.54-1.87-2.91,0-.19-.09-.5-.43-.42-.62.16-1.2.41-1.58.98-.21.32-.42.64-.58.99-.07.14-.09.44,0,.51.16.13.51.28.6.2.53-.47.85-.07,1.17.25.29.28.51.63.8.91.78.75,1.61,1.45,2.37,2.22.29.29.52.68.67,1.08.2.5.25,1.07-.03,1.54-.2.34-.53.62-.84.88-.41.34-1.34.36-1.77.04-.5-.38-.99-.8-1.45-1.24-.71-.68-1.37-1.41-2.07-2.11-.44-.44-.67-.97-.78-1.58-.03-.16-.07-.34-.15-.48-.05-.08-.2-.16-.29-.15-.55.07-1.01.27-1.34.8-.28.44-.52.93-1,1.25-.39.27-.44.73-.19.93.29.23.58.49,1.02.31.34-.14.67-.02.93.23.13.13.32.36.28.45-.09.2-.28.4-.48.47-.2.08-.49.09-.68,0-.65-.34-1.24-.24-1.91-.03-.45.14-.89.33-1.33.44-.5.12-.73.46-1,.8-.2.25-.34.56-.58.74-.39.3-.53.67-.58,1.15-.03.35-.16.69-.25,1.04-.04.16-.13.33-.11.49.11.8.17,1.61.6,2.34.56.95,1.26,1.83,2.12,2.42.81.56,1.71,1.1,2.86,1.06.81-.03,1.54-.26,2.19-.56.69-.33,1.32-.98,1.75-1.64.89-1.39,1.23-2.93.63-4.58-.05-.14.02-.38.12-.5.07-.09.29-.1.43-.07.55.1,1.1.24,1.64.36.91.1,1.56-.45,2.18-.94.67-.52,1.2-1.2,1.55-1.99.19-.43.45-.9.16-1.44ZM17.02,47.25c0,.19-.09.37-.1.56-.03.39-.12.72-.51.87-.1.04-.2.09-.27.17-.62.71-1.31.54-2.07.25-.93-.36-1.69-.93-2.38-1.63-.4-.41-.86-.77-1.18-1.23-.39-.57-.7-1.18-.39-1.99.33-.85.29-.84.94-1.42.42-.38.86-.25,1.3-.28.81-.15,1.39.26,1.99.75.53.44,1.16.76,1.54,1.36.38.61.75,1.23,1.07,1.87.1.2.07.49.06.73Z"/><g class="cls-2"><image width="2091" height="2864" transform="translate(-4.69 .2) scale(.09)" xlink:href="../../img_persoedit.png"/></g></g></svg>