<?xml version="1.0" encoding="UTF-8"?><svg id="Layer_2" xmlns="http://www.w3.org/2000/svg" viewBox="0 0 1262.52 830.95"><g id="Layer_1-2"><path d="M1247.33,241.69c-67.14-.3-134.27-.2-201.41-.2,0,.34,0,.68,0,1.03-61.4,0-122.79.02-184.19,0-43.95-.02-44.28-.18-31.35-40.65,18.05-56.51,36.93-112.77,54.6-169.4,3.17-10.16,2.23-21.61,3.19-32.46-9.23,5.33-19.84,9.16-27.48,16.21-71.87,66.22-144.04,132.17-214.27,200.09-21.4,20.69-43.81,26.9-72.17,26.63-109.35-1.01-218.72-.53-328.08-.04-7.66.03-19.39,2.76-21.84,7.82-2.6,5.37,1.82,16.3,6.32,22.53,14.55,20.14,30.71,39.11,45.96,58.76,29.92,38.56,59.32,77.54,89.63,115.79,11,13.88,11.41,22.83-3.45,35.49-34.96,29.79-68,61.82-101.64,93.14-58.2,54.19-116.2,108.59-174.39,162.79-25.24,23.51-51.11,46.37-75.88,70.37-5.43,5.26-7.35,14.15-10.88,21.36,8.1-.66,16.19-1.29,24.28-2.02.9-.08,1.74-.78,2.6-1.18,144.97-67.32,289.95-134.59,434.89-201.98,28.18-13.1,30.86-13.35,50.04,11.49,34.52,44.71,67.9,90.3,102.39,135.02,5.22,6.77,13.9,10.88,20.99,16.22,4.65-6.8,11.22-12.99,13.64-20.5,26.05-81.06,51.79-162.22,76.74-243.62,5.24-17.1,14.77-28.2,30.81-35.17,32.48-14.13,64.85-28.54,97.05-43.29,128.87-59.01,257.68-118.18,386.47-177.38,5.18-2.38,10.78-4.77,14.74-8.63,3.64-3.55,5.32-9.09,7.87-13.76-5.06-1.55-10.12-4.43-15.19-4.45ZM1014.86,319.56c-81.69,37.7-162.89,76.55-245.43,112.27-73.25,31.7-73.89,30.16-97.96,105.88-10.15,31.94-20.22,63.91-30.96,95.65-1.94,5.74-6.99,10.43-10.6,15.61-4.24-3.71-9.22-6.84-12.59-11.22-17.48-22.78-34.76-45.73-51.72-68.9-22.42-30.61-25.22-31.23-58.41-15.74-85.03,39.68-170.2,79.07-255.39,118.41-4.01,1.85-8.73,2.19-13.12,3.23,2.26-3.93,3.73-8.7,6.9-11.67,44.74-41.96,89.8-83.57,134.59-125.47,25.19-23.56,50.44-47.08,74.89-71.4,15.21-15.13,14.67-22.37,1.36-39.53-26.37-34.02-52.75-68.03-78.76-102.32-3.02-3.98-3.79-9.65-5.61-14.55,5.13-1.71,10.28-4.95,15.39-4.89,52.66.66,105.31,1.99,157.96,2.81,21.02.33,42.19,1.32,63.01-.81,10.6-1.08,22.63-6.14,30.48-13.28,46.02-41.87,90.92-84.96,136.45-127.37,3.7-3.45,9.29-4.88,14-7.25-.27,5.44.57,11.22-.99,16.25-9.89,31.92-19.88,63.83-30.7,95.45-10.17,29.72-6.24,36.3,24.4,37.06,5.75.14,11.51.02,17.26.02,55.29,0,110.58.29,165.87-.18,15.23-.13,30.44-3.11,45.68-3.42,4.64-.09,9.38,4.37,14.07,6.75-3.34,2.91-6.22,6.8-10.07,8.58Z"/></g></svg>