<?xml version="1.0" encoding="UTF-8"?><svg id="Layer_2" xmlns="http://www.w3.org/2000/svg" viewBox="0 0 811.03 466.52"><defs><style>.cls-1{fill:#fff;}</style></defs><g id="Layer_1-2"><path class="cls-1" d="M801.28,135.69c-43.13-.17-86.26-.11-129.38-.11,0,.19,0,.38,0,.58-39.44,0-78.88,0-118.32,0-28.23,0-28.44-.1-20.14-22.82,11.6-31.73,23.72-63.31,35.08-95.11,2.04-5.71,1.43-12.13,2.05-18.22-5.93,2.99-12.74,5.14-17.65,9.1-46.17,37.18-92.53,74.2-137.65,112.34-13.75,11.62-28.14,15.1-46.36,14.95-70.25-.57-140.5-.3-210.75-.02-4.92.02-12.46,1.55-14.03,4.39-1.67,3.01,1.17,9.15,4.06,12.65,9.35,11.31,19.73,21.96,29.52,32.99,19.22,21.65,38.11,43.53,57.58,65.01,7.07,7.8,7.33,12.82-2.21,19.93-22.46,16.72-43.69,34.71-65.29,52.29-37.38,30.43-74.65,60.97-112.03,91.4-16.22,13.2-32.84,26.03-48.74,39.51-3.49,2.95-4.72,7.94-6.99,11.99,5.2-.37,10.4-.72,15.6-1.14.58-.05,1.12-.44,1.67-.66,93.13-37.79,186.26-75.56,279.37-113.4,18.1-7.36,19.82-7.5,32.15,6.45,22.18,25.1,43.62,50.69,65.77,75.81,3.36,3.8,8.93,6.11,13.48,9.11,2.98-3.82,7.21-7.29,8.76-11.51,16.73-45.51,33.27-91.08,49.3-136.78,3.37-9.6,9.49-15.83,19.79-19.75,20.87-7.93,41.66-16.02,62.35-24.3,82.79-33.13,165.53-66.35,248.26-99.59,3.33-1.34,6.93-2.68,9.47-4.85,2.34-1.99,3.42-5.1,5.06-7.72-3.25-.87-6.5-2.49-9.76-2.5ZM651.94,179.41c-52.47,21.17-104.64,42.98-157.66,63.03-47.06,17.8-47.47,16.94-62.93,59.44-6.52,17.93-12.99,35.88-19.89,53.7-1.25,3.22-4.49,5.86-6.81,8.76-2.72-2.08-5.93-3.84-8.08-6.3-11.23-12.79-22.33-25.67-33.23-38.68-14.4-17.19-16.2-17.53-37.52-8.84-54.62,22.28-109.34,44.39-164.06,66.48-2.58,1.04-5.61,1.23-8.43,1.81,1.45-2.21,2.4-4.89,4.43-6.55,28.74-23.56,57.68-46.92,86.46-70.44,16.18-13.23,32.41-26.43,48.11-40.09,9.77-8.5,9.42-12.56.87-22.19-16.94-19.1-33.88-38.19-50.6-57.44-1.94-2.23-2.44-5.42-3.6-8.17,3.3-.96,6.61-2.78,9.89-2.74,33.83.37,67.65,1.11,101.47,1.58,13.5.19,27.1.74,40.48-.46,6.81-.61,14.54-3.45,19.58-7.46,29.56-23.51,58.41-47.7,87.66-71.51,2.38-1.94,5.97-2.74,8.99-4.07-.17,3.05.37,6.3-.64,9.13-6.36,17.92-12.77,35.84-19.72,53.59-6.54,16.69-4.01,20.38,15.67,20.81,3.69.08,7.39.01,11.09.01,35.52,0,71.04.16,106.55-.1,9.79-.07,19.55-1.75,29.35-1.92,2.98-.05,6.02,2.46,9.04,3.79-2.14,1.63-3.99,3.82-6.47,4.82Z"/></g></svg>