<?xml version="1.0" encoding="UTF-8"?><svg id="Layer_2" xmlns="http://www.w3.org/2000/svg" viewBox="0 0 122.35 57.42"><g id="Layer_1-2"><path d="M96.66,38.23l-5.83,6.43s-.13.08-.16.09l-8.05,1.12,6.68,1.17-3.29,6.65,5.83-6.43s.13-.08.16-.09l8.05-1.12-6.68-1.17,3.29-6.65ZM94.96,45.95l-3.07.44c-.22.03-.47.16-.63.33l-2.05,2.27,1.12-2.27c.08-.17.03-.3-.14-.33l-2.47-.44,3.07-.43c.22-.03.47-.16.63-.35l2.05-2.25-1.12,2.25c-.09.19-.03.32.14.35l2.47.43Z"/><path d="M110.21,31.3l12.14-1.69-10.35-1.81,4.96-10.06-8.57,9.45c-.25.27-.66.5-.99.55l-12.14,1.7,10.36,1.8-1.94,3.92-12.66-2.13c-.19-.03-.33-.11-.38-.19-.05-.08-.05-.28.11-.57l8.47-17.36-15.03,16.48c-.77.83-1.98,1.5-3.02,1.64l-22.4,3.06,19.06,3.23c.2.03.35.09.38.17.05.09.05.28-.09.58l-8.49,17.34,15.04-16.47c.76-.82,1.97-1.48,3.02-1.62l14.95-2.05-2,4.03,3.89-4.3h.02l5.54-.76-4.22-.71,3.34-3.69c.25-.27.66-.5.99-.55ZM104.96,35.38l-.6.65h.02l.91.16.55.09-.72.09-1.18.14-.09.09.03-.09-.91.11-15.37,1.91c-1.23.17-2.61.93-3.5,1.89l-11.34,12.41,6.08-12.41c.47-.96.13-1.72-.87-1.89l-13.97-2.36,17.29-2.36c1.21-.16,2.61-.91,3.48-1.87l11.34-12.43-6.06,12.43c-.47.96-.13,1.72.85,1.87l12.44,2.06.8.13.35-.69,1.97-3.97c.2-.41.06-.74-.35-.8l-5.76-1.01,7.17-1.01c.52-.06,1.1-.38,1.46-.79l4.79-5.28-2.6,5.28c-.2.41-.08.72.33.79l5.78,1.01-7.18,1.01c-.5.06-1.09.39-1.46.8l-3.67,4.05Z"/><path d="M32.29,19.83c.01-.36-.04-.76.17-1.15.15-.29.05-.66-.12-.78-.27-.18-.49,0-.7.13-.47.31-.77.77-1.04,1.25-.42.77-.61,1.63-.84,2.47-.15.52-.35,1.03-.59,1.5-.32.62-.95.7-1.52.33-.17-.11-.24-.28-.22-.49.02-.3,0-.61.02-.91,0-.18.04-.35.08-.52.12-.55.29-1.09.49-1.63.14-.38.07-.85.06-1.29,0-.11-.12-.25-.22-.33-.38-.34-.42-.88,0-1.17.6-.42,1.21-.84,1.97-.95.07-.01.16-.02.22,0,.48.19.92.05,1.29-.22.45-.32.93-.37,1.45-.37.23,0,.44.05.6.26.19.25.47.26.75.08.67-.41,1.34-.82,2.01-1.23.07-.05.16-.08.24-.11.4-.11.8-.22,1.2-.33.09-.02.18-.07.26-.06.49.07.97.15,1.45.26.18.04.34.18.35.4,0,.05.04.09.06.14.24.49.56.53.92.11.14-.16.26-.35.39-.51.34-.42.8-.69,1.25-.98.57-.37,1.19-.62,1.83-.8.45-.13.92-.19,1.35-.01.61.25,1.12.1,1.66-.21.41-.24.86-.43,1.31-.58.2-.07.45-.02.67.03.23.06.38.23.37.51-.02.42.07.84-.14,1.24-.04.07-.02.17-.04.26-.07.45-.06.93-.24,1.33-.16.36-.18.73-.32,1.08-.13.31-.06.53.15.58.21.05.34-.1.4-.44.1-.6.23-1.19.32-1.79.08-.51.4-.89.63-1.33.06-.11.15-.21.21-.32.3-.63.81-1.08,1.34-1.48.94-.7,2-1.13,3.21-1.05.44.03.88-.02,1.3-.21.47-.21.99-.1,1.12.23.1.26.13.57.1.85-.05.63-.25,1.23-.42,1.84-.15.53-.08,1.13-.07,1.7,0,.24.2.32.46.25.67-.18.9-.48,1.01-1.21.1-.63.18-1.27.39-1.88.14-.4.1-.76-.21-1.09-.48-.51-.46-.8.04-1.3.21-.21.44-.39.63-.61.36-.45.69-.93,1.04-1.4.12-.16.24-.33.4-.45.34-.28.74-.17.9.24.08.2.13.42.14.63.02.3.18.51.43.63.4.2.72.46.87.9.08.24.27.25.49.07.19-.16.39-.32.57-.51.58-.63,1.34-.94,2.09-1.29.78-.37,1.57-.47,2.41-.37.67.08.93.41,1.16,1.08.18.52.11.94-.2,1.38-.37.52-.77.98-1.33,1.32-.45.27-.91.49-1.39.67-.56.2-1.06.53-1.67.6-.28.03-.47.33-.46.62,0,.27.12.37.47.45.51.12.94-.08,1.36-.32.48-.28.96-.56,1.43-.86.25-.16.52-.15.77-.07.32.1.46.46.33.78-.14.34-.38.6-.67.82-.22.17-.45.33-.7.46-.57.31-1.14.62-1.72.88-.49.22-1.04.21-1.57.2-.21,0-.43-.04-.64-.09-.12-.02-.23-.08-.34-.14-.15-.08-.28-.19-.43-.25-.29-.12-.43-.07-.65.15-.13.13-.29.24-.43.36-.09.07-.21.12-.27.21-.44.65-1.14.78-1.83.86-.32.04-.67-.11-.99-.23-.43-.17-.81-.17-1.11.19-.4.47-.92.7-1.47.9-.41.15-.78.01-1.13-.19-.47-.28-.88-.14-1.14.15-.53.58-1.24.82-1.95,1.06-.08.03-.18.05-.26.04-.46-.08-.93-.12-1.38-.26-.33-.1-.58-.07-.85.12-.35.25-.7.49-1.08.7-.45.25-.94.19-1.4.03-.27-.09-.52-.26-.77-.41-.18-.11-.33-.11-.49,0-.07.05-.16.08-.23.14-.44.34-.87.68-1.31,1.02-.08.06-.16.13-.25.16-.3.1-.6.19-.9.28-.26.08-.52.14-.77.22-.53.18-1.02,0-1.52-.17-.36-.12-.61-.35-.86-.6-.08-.08-.18-.15-.28-.2-.31-.18-.4-.16-.56.17-.31.64-.87,1.01-1.42,1.4-.58.4-1.25.6-1.9.84-.53.2-1.06.29-1.6.18-1.09-.21-2-.95-1.96-2.16,0-.13,0-.25,0-.42ZM46.61,16.15c-.07-.19-.08-.45-.2-.51-.12-.06-.34.07-.52.12-.01,0-.02.01-.03.02-.16.13-.3.12-.48.02-.34-.19-.61-.44-.83-.77-.25-.39-.48-.44-.85-.22-.71.42-1.27.99-1.53,1.78-.18.52-.31,1.07-.37,1.62-.06.5.46.93.95.8.58-.15,1.14-.32,1.61-.78.38-.38.85-.74,1.47-.66.23.03.38-.12.45-.3.14-.36.23-.75.34-1.13ZM52.3,16.83c.17-.06.36-.11.52-.19.52-.25.81-.75,1.13-1.19.49-.67.9-1.4,1.07-2.24.05-.23.13-.44-.06-.64-.2-.21-.45-.26-.7-.19-.25.07-.5.18-.73.3-.52.27-.75.81-1.14,1.21-.23.24-.19.57-.29.85-.15.42-.29.84-.42,1.26-.13.44.15.79.61.84ZM39.58,18.67c-.07-.27-.13-.5-.18-.74-.04-.2-.16-.25-.33-.17-.24.12-.47.25-.7.37-.42.23-.84.48-1.27.68-.36.17-.75.3-1.13.44-.21.08-.43.16-.65.2-.26.05-.48.25-.5.49-.02.22.18.54.42.57.27.03.59.08.83-.02.43-.17.83-.42,1.22-.68.54-.37,1.06-.76,1.78-.51.07.02.22-.02.26-.08.11-.18.18-.39.26-.56ZM60.58,14.03c0,.47.2.61.62.45.21-.08.43-.15.64-.24.24-.09.35-.29.38-.52.02-.16.02-.33.02-.49,0-.76.15-1.48.56-2.13.02-.03.05-.07.05-.1-.01-.13,0-.31-.07-.39-.07-.07-.25-.07-.38-.05-.12.01-.24.08-.35.13-.38.2-.78.38-.9.86-.07.27-.16.53-.22.8-.12.53-.23,1.06-.34,1.59,0,.04,0,.08,0,.1ZM35.62,17.31c0,.28.13.37.43.27.27-.09.53-.22.81-.32.24-.09.4-.26.53-.47.11-.17.19-.35.03-.52-.15-.16-.32-.1-.49-.01-.31.17-.63.33-.93.51-.19.12-.38.26-.38.53ZM65.9,10.9c.4-.05,1.09-.24,1.32-.68.08-.16.11-.34.17-.51-.18-.03-.36-.06-.55-.09-.03,0-.08,0-.11.03-.39.21-.78.43-1,.84-.04.08-.09.21-.05.27.05.08.17.11.22.14Z"/><path d="M83.26,20.24c0-.31-.02-.61,0-.92.01-.22.07-.45.12-.67.01-.06.05-.12.06-.18.03-.54.07-1.09.22-1.61.08-.28.12-.57.16-.86.03-.18.07-.35.05-.53-.05-.75.33-1.29.85-1.75.43-.38,1.22-.29,1.53.18.21.32.27.72.18,1.1-.17.65-.38,1.28-.58,1.92,0,.01-.01.02-.01.03-.04.7-.49,1.3-.54,2-.01.17-.11.34-.17.5-.22.57-.28,1.21-.67,1.72-.19.25-.21.54-.02.82.05.07.07.16.11.24.32.64.09,1.28-.57,1.57-.13.06-.24.16-.37.19-.19.04-.39.04-.58.02-.13-.02-.26-.09-.38-.17-.39-.26-.72-.11-1.05.13-.38.28-.75.57-1.13.84-.1.07-.23.1-.35.11-.42.01-.84,0-1.26,0-.07,0-.18,0-.22-.05-.22-.26-.45-.51-.63-.8-.08-.13-.08-.32-.07-.48.03-.5,0-1,.21-1.49.11-.25.14-.54.18-.81.05-.3.07-.61.1-.91.03-.31-.06-.42-.35-.36-.25.05-.48.15-.72.22-.12.03-.25.06-.37.08-.31.05-.53.2-.67.5-.38.79-.77,1.57-1.15,2.36-.05.11-.12.24-.12.36.01.32-.08.6-.22.88-.12.24-.19.48-.21.76-.04.55-.77,1.07-1.31.96-.27-.06-.48-.21-.58-.49-.11-.32-.09-.65-.05-.98.04-.29.03-.58.04-.87,0-.05-.05-.11-.07-.16-.04.03-.09.05-.12.09-.12.16-.28.31-.35.49-.17.43-.38.83-.68,1.18-.41.48-.79,1-1.34,1.34-.54.34-1.14.53-1.74.73-.34.11-.65.25-1.03.21-.85-.08-1.57-.39-2.08-1.1-.31-.43-.62-.42-.92.03-.66,1-1.56,1.71-2.59,2.31-.55.32-1.14.2-1.71.27-.41.05-.77.16-1,.53-.27.44-.23.75.12,1.14.12.13.24.27.31.42.25.6.02.78-.47,1-.91.4-1.89.48-2.86.58-.32.03-.61-.11-.71-.34-.1-.23-.02-.56.22-.8.24-.24.49-.48.72-.73.24-.26.32-.6.39-.94.05-.26.11-.52.16-.78.14-.72.53-1.38.49-2.14-.01-.17.1-.34.14-.51.13-.53.25-1.06.36-1.6.05-.27-.06-.49-.23-.69-.52-.59-.39-1.27.32-1.61.38-.18.77-.33,1.14-.53.31-.17.62-.18.92-.05.53.22.97.02,1.34-.29.65-.54,1.37-.78,2.19-.62.35.07.68.26,1.02.4.05.02.09.09.13.14.16.19.32.39.49.57.15.16.33.13.46-.03.21-.26.39-.56.63-.8.33-.33.7-.61,1.06-.91.05-.04.13-.03.18-.07.55-.48,1.27-.57,1.93-.72,1.03-.23,1.98-.04,2.65.88.31.43.39.95.4,1.48,0,.28.02.56.06.84,0,.07.1.13.15.2.05-.06.11-.1.13-.17.17-.46.33-.93.48-1.4.07-.22.03-.45-.13-.65-.15-.19-.27-.4-.39-.61-.2-.34-.1-.64.25-.83.38-.2.74-.46,1.14-.6.37-.14.79-.22,1.18-.22.47,0,.86-.11,1.24-.37.51-.35,1.11-.44,1.71-.47.27-.01.46-.11.61-.32.28-.4.55-.82.86-1.2.22-.28.47-.54.75-.75.12-.08.37-.05.53.02.19.08.37.25.32.51-.11.55.09.93.61,1.17.15.07.29.16.41.27.28.25.28.7-.02.93-.19.14-.4.29-.63.34-.55.14-.88.52-1.07,1-.14.35-.17.74-.25,1.11-.09.41-.17.82-.26,1.23-.02.07-.05.15-.05.22,0,.28.19.4.45.31.1-.03.18-.09.28-.12.19-.06.39-.18.58-.15.52.08.94-.13,1.37-.37.22-.13.38-.3.38-.57,0-.41,0-.81,0-1.22,0,0,.02,0,.03,0ZM67.26,24.57h.01c0,.23,0,.46,0,.69.02.3.19.47.46.58.48.18,1.21-.2,1.44-.63.34-.64.91-1.17.9-1.97,0-.06.05-.12.06-.18.04-.31.11-.63.11-.94,0-.44-.55-.79-.97-.64-.47.17-.91.44-1.19.84-.32.43-.53.94-.78,1.42-.04.08-.03.2-.04.3,0,.18,0,.36,0,.53ZM59.68,26.84s.03,0,.04.01c0,.04,0,.08,0,.11.02.49.3.69.76.53.15-.05.29-.18.45-.2.41-.04.67-.29.91-.57.17-.2.3-.43.44-.66.21-.34.48-.67.59-1.05.14-.45.18-.94.19-1.42,0-.28-.3-.48-.57-.44-.32.05-.64.13-.87.4-.11.14-.26.24-.38.37-.2.23-.42.45-.57.71-.29.53-.55,1.08-.81,1.63-.08.18-.12.38-.18.57Z"/><path d="M18.39,28.91c-.05,0-.1,0-.15,0-.28.02-.55,0-.66-.32-.11-.33-.11-.65.14-.93.15-.17.32-.32.49-.48.36-.35.55-.77.65-1.26.17-.82.36-1.63.54-2.44.03-.14.04-.28.04-.42,0-.1-.04-.2-.06-.31-.07.08-.18.16-.22.25-.3.69-.74,1.31-1.19,1.9-.59.76-1.3,1.38-2.19,1.79-.05.02-.09.06-.14.07-.57.1-1.15.18-1.72.28-.2.03-.4.06-.58.14-.28.12-.4.35-.41.67-.01.42.05.77.4,1.09.42.37.32.74-.16,1.04-.4.25-.8.44-1.28.4-.07,0-.16,0-.22.03-.46.24-.97.16-1.45.27-.31.07-.63-.09-.75-.34-.14-.27-.06-.52.15-.73.15-.15.31-.3.45-.47.19-.23.38-.47.54-.73.11-.17.12-.37-.04-.53-.14-.15-.32-.15-.49-.05-.28.17-.58.21-.9.26-.32.05-.63.19-.94.29-.43.14-.85.17-1.25-.07-.29-.17-.39-.4-.23-.7.13-.24.32-.46.51-.66.39-.4.41-1.2-.03-1.53-.18-.13-.45-.18-.68-.18-.24,0-.49.12-.73.2-.28.09-.55.22-.83.26-.34.05-.54.24-.72.5-.2.31-.42.6-.6.92-.25.41-.23.68.09,1.04.19.22.2.4.07.65-.25.49-.59.75-1.17.74-.34,0-.69.15-1.04.19-.34.03-.68,0-1.02,0-.23,0-.33-.16-.3-.36.06-.44.13-.85.6-1.12.44-.25.65-.74.89-1.17.42-.74.85-1.49,1.25-2.24.47-.87.91-1.75,1.36-2.63.02-.03.03-.07.05-.1.56-.56.73-1.35,1.15-2,.23-.35.41-.74.67-1.06.51-.59,1.72-.84,2.18.11.15.31.21.68.27,1.02.1.56.25,1.11.24,1.69,0,.24.14.48.2.73.13.5.25,1.01.37,1.51.02.09.04.18.04.26,0,.76.25,1.44.7,2.04.09.12.32.19.5.2.18,0,.26-.16.29-.34.14-.67.29-1.34.45-2,.09-.37.23-.72.32-1.09.12-.47.09-.9-.3-1.26-.41-.37-.35-.91.12-1.18.5-.29,1.01-.57,1.54-.81.26-.12.58-.12.85.02.2.1.38.1.58-.02.35-.2.7-.41,1.08-.57.95-.41,1.91-.61,2.85.06.1.07.22.13.33.2.29.17.43.14.49-.19.08-.44.39-.59.72-.76.39-.2.8-.38,1.19-.59.2-.1.38-.11.58,0,.39.22.76.19,1.15-.06.54-.35,1.1-.67,1.74-.81.45-.1.91-.14,1.33.11.21.12.42.23.63.35.37.2.52.5.6.91.18.87.07,1.69-.24,2.51,0,.01-.01.02-.01.04.01.82-.59,1.32-1.02,1.9-.31.41-.7.77-1.1,1.1-.39.32-.83.57-1.25.86-.04.03-.09.05-.14.06-.57.06-1.13.14-1.7.17-.29.02-.56.02-.71.33-.19.38-.42.75-.02,1.14.09.09.18.18.27.27.35.34.36.82,0,1.14-.05.04-.1.09-.15.11-.33.09-.66.16-.99.25-.32.08-.63.19-.95.27-.31.07-.62.12-.93.18,0-.01,0-.03,0-.04ZM17.05,21.89s-.03-.01-.04-.02c0-.1-.01-.2-.03-.3-.09-.48-.42-.64-.87-.46-.61.24-.93.81-1.43,1.17-.02.01-.03.04-.04.07-.25.52-.51,1.04-.75,1.57-.09.2-.12.44-.21.65-.17.41,0,.73.43.83.34.08.61-.06.89-.22.48-.28.89-.62,1.13-1.14.21-.47.45-.93.66-1.4.11-.24.17-.49.26-.74ZM22.46,23.51c.33.07.63-.12.96-.32.31-.19.54-.42.66-.74.12-.33.3-.61.52-.87.15-.18.27-.4.34-.62.09-.26.1-.54.16-.81.07-.31-.07-.69-.34-.87-.28-.2-.5-.02-.73.12-.63.38-1.02.97-1.45,1.54-.08.1-.12.22-.17.34-.1.22-.21.43-.3.66-.12.29-.26.58-.32.88-.13.66-.06.72.68.71ZM6.92,23.01c-.01-.14,0-.28-.04-.41-.05-.18-.25-.28-.38-.19-.26.18-.51.39-.61.71-.1.3.05.53.36.59.4.07.68-.21.68-.69ZM19.43,20.36c-.04.07-.16.16-.15.26.01.43.04.86.09,1.29,0,.08.11.15.17.23.07-.08.17-.15.2-.25.09-.29.15-.59.23-.89.08-.28-.17-.63-.53-.64Z"/><path d="M27.12,29.34c.61.08,1.01,0,1.39-.32.36-.31.83-.36,1.3-.28.6.1.93.83.65,1.37-.22.43-.55.64-1.04.71-.68.11-1.23.47-1.55,1.11-.25.51-.5,1.03-.72,1.55-.13.31-.22.64-.32.97-.16.53-.3,1.07-.48,1.6-.2.63-.99.98-1.58.72-.34-.15-.61-.11-.92.12-.38.29-.79.59-1.23.74-.51.17-1.07.19-1.6-.05-.29-.13-.55-.15-.82.05-.41.29-.83.59-1.28.81-.63.32-1.29.46-1.98.15-.5-.23-.91-.84-.89-1.39,0-.17.09-.42-.13-.46-.11-.02-.32.16-.4.29-.29.54-.64,1.04-1.06,1.48-.37.38-.7.79-1.2,1.03-.42.2-.88.33-1.29.52-.56.26-1.1.19-1.64.14-.34-.03-.68-.19-.98-.37-.55-.34-.89-.85-1-1.51-.01-.09-.04-.18-.09-.25-.11-.18-.22-.19-.32.01-.15.33-.35.67-.39,1.02-.08.65-.28,1.26-.43,1.89-.04.15-.1.28-.16.42-.15.37-.31.75-.46,1.12-.02.06-.04.13-.09.17-.59.57-1.1,1.24-1.84,1.64-.78.43-1.6.77-2.5.81-.55.02-1.08-.12-1.58-.35-.11-.05-.19-.2-.25-.32-.09-.18-.16-.37-.21-.57-.03-.1-.02-.23.01-.33.04-.12.11-.23.17-.34.3-.5.99-.67,1.5-.39.29.16.57.32.87.47.26.13.52.1.75-.09.29-.23.6-.43.86-.69.18-.18.29-.44.4-.68.09-.19-.05-.27-.22-.23-.35.1-.71.19-1.04.34-.87.38-1.9.07-2.38-.75-.04-.08-.09-.16-.09-.24,0-.46-.03-.92.04-1.37.11-.69.29-1.36.45-2.04.06-.29-.02-.54-.24-.72-.5-.41-.42-.89.03-1.29.28-.24.59-.42.94-.55.21-.08.41-.2.61-.29.36-.17.69-.08.95.17.26.24.3.54.2.91-.15.53-.21,1.09-.32,1.64-.03.16-.14.3-.17.45-.11.59-.22,1.18-.29,1.77-.04.32.29.52.58.36.45-.26.86-.58,1.17-1.02.54-.77.77-1.67,1.2-2.49.15-.28.16-.64.26-.95.14-.44.3-.88.46-1.32.03-.08.09-.18.16-.21.32-.11.65-.24.98-.27.4-.03.75.56.64.99-.04.17-.09.35-.1.52,0,.07.06.15.09.23.07-.04.17-.06.22-.11.37-.45.76-.88,1.09-1.36.29-.42.67-.68,1.12-.88.07-.03.16-.03.21-.08.88-.7,1.93-.67,2.97-.66.29,0,.54.08.77.29.18.17.42.28.63.43.09.06.2.16.21.26.04.51.31.97.24,1.5-.02.16.06.47.16.49.25.06.32-.23.38-.39.17-.51.21-1.01-.17-1.47-.39-.46-.35-.97.12-1.33.68-.51,1.41-.89,2.31-.76.25.04.38.13.36.38-.03.54-.03,1.08-.18,1.62-.15.51-.2,1.05-.38,1.57-.13.36-.09.78-.12,1.17-.02.18.04.33.2.42.17.1.32.04.46-.07.52-.42.95-.92,1.26-1.51.02-.03.02-.08.04-.11.53-.63.55-1.44.8-2.17.2-.57.35-1.17.59-1.72.32-.72,1.3-.8,1.75-.16.1.14.16.36.14.53-.09.56-.23,1.12-.35,1.67-.09.42-.17.84-.26,1.27-.03.12-.07.24-.11.36-.15.37.05.69.45.72.66.05,1.22-.39,1.35-1.07.09-.43.15-.87.23-1.31.06-.34.13-.67.18-1,.04-.22-.06-.39-.21-.55-.57-.63-.55-.84.16-1.3.4-.26.81-.53,1.25-.72.28-.12.61-.1.78-.12ZM10.66,37.17c0,.25-.02.45,0,.66.05.44.57.87.91.71.62-.3,1.28-.57,1.48-1.34.02-.06.06-.11.09-.17.44-.61.49-1.3.49-2.03,0-.76-.83-1.02-1.35-.72-.55.32-.91.78-1.21,1.33-.27.51-.52,1.01-.42,1.57Z"/><path d="M38.43,26.85c.22,0,.43.01.65,0,.38-.03.69.08.99.31.26.2.37.17.63-.05.55-.45,1.1-.9,1.79-1.12.11-.03.2-.11.3-.16.38-.17.72-.08.91.29.16.32.27.66.17,1.03,0,.02-.02.05-.02.07.04.74-.42,1.34-.54,2.03-.09.46-.17.92-.25,1.39-.03.2.02.41.21.49.11.04.32,0,.41-.09.39-.38.79-.76,1.11-1.19.29-.4.46-.9.73-1.33.46-.74.5-1.61.79-2.4.09-.25.15-.52.29-.74.1-.16.28-.33.46-.38.28-.06.58-.06.86-.01.3.05.46.34.48.65.03.62,0,1.22-.35,1.76-.04.07-.04.17-.06.26-.11.44-.22.88-.34,1.32-.01.05-.04.09-.05.14-.13.52.01.71.55.74.11,0,.23,0,.34,0,.41-.02.65-.21.76-.61.07-.24.21-.46.29-.7.08-.25.13-.51.17-.77.04-.26.03-.53.08-.8.07-.39-.02-.72-.24-1.04-.37-.54-.33-.87.2-1.26.53-.39,1.07-.79,1.77-.8.2,0,.43-.02.6.06.36.19.63.02.91-.15.37-.22.74-.46,1.12-.65.17-.09.39-.11.59-.12.37,0,.76-.04,1.1.06.54.16,1.03.43,1.33.95.04.06.06.14.07.22.05.87.19,1.76-.17,2.6-.18.42-.35.85-.6,1.23-.35.54-.73,1.07-1.18,1.54-.3.31-.72.51-1.09.75-.02.01-.05.02-.07.03-.7.51-1.5.62-2.34.61-.38,0-.74.22-.86.52-.2.5-.18.79.22,1.09.65.49.55,1.14-.24,1.44-.44.17-.88.4-1.39.33-.12-.02-.25.02-.37.07-.42.18-.86.21-1.31.13-.5-.09-.68-.58-.34-.97.15-.17.33-.32.5-.46.24-.19.45-.37.44-.71,0-.11.09-.21.1-.32.01-.12.02-.3-.04-.35-.09-.07-.26-.07-.38-.03-.35.11-.68.26-1.03.37-.41.12-.83.08-1.2-.1-.38-.19-.67-.08-.96.1-.49.3-.94.68-1.51.86-.44.14-.86.31-1.36.18-.32-.08-.68-.08-.86-.39-.15-.26-.23-.56-.35-.84-.15-.36-.12-.68.12-1,.09-.13.12-.33.12-.51,0-.41.03-.81.14-1.21.07-.24.06-.5.07-.76,0-.11-.04-.23-.11-.31-.2-.27-.42-.24-.52.09-.1.33-.26.62-.57.77-.41.2-.83.36-1.28.03-.26-.19-.58-.32-.88-.46-.45-.21-1.08.03-1.34.3-.19.2-.18.37.04.51.17.1.37.16.56.19.67.12,1.35.23,2.03.35.17.03.31.12.41.3.13.24.35.44.47.69.1.18.16.41.15.61-.04.58-.22,1.09-.65,1.54-.54.57-1.15,1.02-1.89,1.24-1.11.33-2.26.54-3.41.26-.8-.19-1.41-.84-1.27-1.71.09-.53.93-.97,1.5-.67.21.11.43.23.6.4.41.4.87.5,1.43.39.31-.06.63-.05.89-.26.03-.02.07-.03.1-.06.17-.16.37-.31.34-.57-.03-.27-.28-.33-.48-.38-.32-.08-.65-.11-.98-.11-.69,0-1.3-.24-1.83-.64-.17-.13-.3-.35-.4-.54-.27-.52-.24-1.02.05-1.54.44-.8,1.13-1.29,1.93-1.63.71-.3,1.45-.46,2.22-.39ZM54.92,25.84c0-.06,0-.13,0-.19-.04-.63-.47-.85-1.03-.56-.73.37-1.06,1.08-1.45,1.72-.3.49-.5,1.05-.76,1.57-.14.27-.19.51,0,.78.23.31.56.3.83.18.48-.21,1-.42,1.32-.86.24-.33.43-.71.6-1.08.23-.49.46-.99.49-1.54Z"/><path d="M73.33,11c.06-.34.12-.67.19-1.01.01-.06.05-.13.04-.19-.04-.55.24-.97.52-1.4.28-.43.55-.86.83-1.29.03-.04.06-.08.1-.12.65-.54,1.31-1.04,2.12-1.35.63-.24,1.23-.32,1.88-.22.47.07.92-.03,1.34-.22.44-.2.78-.1.96.35.1.24.17.5.08.78-.06.2-.09.43-.07.64.03.43-.11.8-.29,1.16-.05.11-.09.23-.12.36-.06.28-.1.57-.15.86-.02.15-.05.31-.03.45,0,.08.1.2.17.22.33.07.67.1.92-.19.19-.23.35-.48.39-.8.04-.33.19-.65.26-.98.09-.38.15-.77.21-1.15.03-.16,0-.35.07-.49.33-.68.39-1.44.61-2.16.14-.46.1-.93-.28-1.31-.2-.2-.33-.45-.24-.73.06-.18.18-.38.33-.48.34-.22.72-.36,1.07-.56.46-.26.92-.29,1.39-.09.41.17.76.07,1.07-.17.52-.39,1.12-.63,1.72-.86.57-.22.98.26,1.07.77.01.07.01.16,0,.23-.17.73-.34,1.45-.51,2.18-.03.12-.09.24-.09.37-.03.58-.19,1.12-.39,1.65-.02.06-.04.13-.04.19.05.47-.21.88-.28,1.33-.06.41-.14.83-.16,1.24-.02.37.12.47.49.4.28-.05.56-.08.75.21.15.24.1.64-.13.88-.36.37-.67.82-1.17,1.02-.46.19-.93.37-1.46.17-.41-.16-.83-.15-1.22.14-.29.22-.62.4-.95.55-.22.1-.49.14-.74.14-.35,0-.71-.04-1.04-.14-.42-.12-.77-.14-1.08.21-.04.05-.1.08-.14.13-.65.75-1.47.76-2.33.5-.37-.11-.72-.12-1.05.14-.23.18-.47.34-.73.48-.22.12-.47.17-.69.3-.58.34-1.17.28-1.8.14-.51-.11-.67-.6-1.09-.78-.08-.32-.18-.63-.24-.96-.04-.17-.02-.35-.03-.53h-.03ZM75.63,10.58c-.05.36.16.58.39.79.17.15.34.17.55.06.6-.31,1.04-.79,1.36-1.34.4-.68.78-1.38,1-2.15.08-.29.01-.51-.14-.71-.15-.21-.39-.2-.63-.14-.59.16-1.07.49-1.46.96-.36.43-.62.92-.79,1.45-.12.36-.2.73-.29,1.09ZM84.47,8.67s.02,0,.02,0c0,.08,0,.15,0,.23.01.34.16.44.5.36.26-.06.45-.23.54-.45.17-.39.32-.8.42-1.21.14-.59.23-1.19.36-1.79.08-.36.19-.71.28-1.06.13-.5.25-1,.38-1.51.03-.11.03-.23.05-.34.05-.29-.41-.8-.65-.81-.25-.01-.52.31-.59.7,0,.03,0,.05-.01.08-.1.38-.21.76-.3,1.14-.13.5-.25,1-.36,1.51-.13.59-.25,1.18-.37,1.78-.09.46-.18.92-.27,1.38Z"/><path d="M48,9.95c-.05-.49.28-.81.7-1.03.36-.19.74-.15,1.09.06.37.22.49.59.38,1.01-.08.29-.19.55-.4.76-.4.41-.95.48-1.41.16-.28-.2-.37-.42-.36-.95Z"/></g></svg>