<?xml version="1.0" encoding="UTF-8"?><svg id="Layer_2" xmlns="http://www.w3.org/2000/svg" viewBox="0 0 104.51 7.32"><g id="Vectors"><path d="M103.42,1.48c.1-.35.26-.67.4-1.01-.4-.12-.87-.42-1.19-.31-.52.18-1.12.54-1.38.99-.38.65-.3,1.03-.73-.01-.55-1.34-1.42-1.34-2.55-.23-.04.04-.35-.09-.45-.21-.51-.66-2.34-.87-2.55-.25-.29.86-.45,1.77-.68,2.65-.05.2-.15.38-.23.57-.1-.16-.24-.32-.28-.49-.53-2.62-1.12-3.1-3.77-3.06-.62,0-1.24-.05-1.85.03-.32.04-.81.25-.88.48-.19.62-.34.58-.75.19-1.11-1.08-2.38-.94-3.7-.46-.32.12-.72.09-1.08.06-1.71-.1-3.41-.26-5.12-.31-.23,0-.48.46-.72.71.24.18.48.53.7.52,1.21-.09,1.19.67,1.17,1.51-.03,1.07,0,2.13,0,3.2,0,.65.15,1.06.93,1.07.79,0,1.15-.3,1.13-1.08-.01-.51,0-1.01,0-1.52,0-.79.01-1.57.03-2.36.01-.85.63-.89,1.18-.73.79.22,0,.56-.01.85-.03.95-.33,1.99-.03,2.82.28.78,1.11,1.79,1.82,1.89,1.36.2,2.88.56,4.21-.35,1.32.92,2.81.31,4.21.44.14.01.34-.08.44-.19.47-.54.8-.47,1.39-.04.83.61,1.42.3,1.98-.56.28-.43.76-1.01,1.15-1.01.39,0,1.01.58,1.12,1.01.27,1.13,1.11.96,1.67.67.3-.15.32-1.05.28-1.59-.05-.68-.29-1.35-.45-2.02.79.31,1.22.86,1.19,1.75-.02.39.02.79.01,1.18,0,.68.39.83.98.83.63,0,1.02-.26.9-.89-.35-1.88,1.1-3.15,1.55-4.75ZM84.48,5.53c-.65.13-1.47-.85-1.48-1.62-.01-1.14.52-1.84,1.43-1.84,1.37,0,.71,1.1.88,1.53.11.96.11,1.74-.83,1.92ZM91.36,4.59c-.05.09-.16.16-.25.22-.46.27-.92.54-1.38.8-.14-.5-.29-1-.41-1.5-.05-.21,0-.45,0-.67,0-.06,0-.11,0-.17.14-.61.27-1.22.41-1.83.51.39,1.06.74,1.52,1.18.61.59.51,1.29.11,1.97ZM98.25,3c-.06-.23.05-.51.09-.77.12.21.25.41.34.62.06.14.06.3.08.45-.19-.1-.46-.17-.5-.31Z"/><path d="M74.23.11c-2.67-.2-5.33.17-8.01.06-.94-.04-1.91.05-2.87-.02-1.28-.09-2.61-.21-3.86.02-1.32.24-2.55-.26-3.82-.13-.56.06-1.15-.07-1.67.08-.33.09-.79.51-.8.79-.07,1.79-.06,3.59,0,5.38,0,.28.4.77.61.77,1.49-.02,2.98-.14,4.47-.23.19-.01.37-.06.56-.05,1.7.1,3.4.24,5.11.31.38.01.78-.36,1.16-.34,1.03.06,2.05.32,3.08.35.83.02,2.02-1.3,1.97-2.16-.03-.46-.24-1.03-.57-1.32-.32-.28-.9-.27-1.37-.37-.32-.07-.71-.03-.95-.2-.25-.18-.35-.56-.51-.86.29.05.63.04.88.17,1.16.61,1.45.54,2.14-.38.22-.29.72-.58,1.02-.51.27.06.54.58.61.93.1.54.03,1.12.03,1.68h.02c0,.67,0,1.35,0,2.02-.01.68.25,1.02.99,1.03.8,0,1.11-.33,1.1-1.11-.01-1.23.02-2.47,0-3.7,0-.6.17-.97.86-.93.44.02.93.07.93-.63,0-.85-.63-.61-1.09-.64ZM55.94,1.12c.4.35.65.56.9.78-.24.22-.49.63-.71.62-.34-.02-.66-.34-.99-.54.22-.24.45-.48.8-.86ZM56,5.66c-.58.15-1.02-.18-.88-.8.07-.32.46-.74.74-.78.34-.05.73.27,1.1.43.01.16.03.32.04.48-.33.23-.64.57-1,.66ZM62.65,2.08c.52-.02,1.14-.17,1.36.57-.49-.03-.98-.03-1.47-.09-.5-.06-.98-.19-1.47-.29.53-.07,1.05-.18,1.58-.2ZM64.7,4.54c-1.01.7-2.18.61-3.32.56-.2,0-.4-.29-.59-.44.2-.21.38-.53.62-.59.42-.1.89-.08,1.33-.04,1.02.09,1.41-.39,1.31-1.33.31.46.63.92.9,1.4.04.08-.11.35-.24.43ZM67.04,4.49c.21.32.38.58.55.84-.22.11-.51.37-.65.3-.32-.14-.57-.45-.84-.68.25-.12.5-.24.94-.46Z"/><path d="M49.61.12c-1.68-.05-3.37.02-5.05,0-.68,0-.87.32-.86.93.02.9-.03,1.8.01,2.7.03.78-.07,1.68-.9,1.72-.85.03-1-.85-.97-1.64.04-.95,0-1.91,0-2.87,0-.54-.16-.87-.77-.83-.51.04-1.18-.25-1.21.7-.01.48.13,1.32-.68.22-.43-.59-1.54-.76-2.37-.97-1.27-.32-2.17.52-3.11,1.18,0,0-.01.01-.02.03l.02-.03c-.22-.39-.35-1.01-.66-1.12-.84-.31-1.48.19-1.97.87-.18.25-.23,1.74-.73.07-.27-.91-1.43-1.32-2.06-.84-.77.58-.35,1.22.02,1.99.64,1.32,2.03,2.4,1.58,4.17-.04.17.41.62.69.68.85.2,1.23-.23,1.16-1.1-.14-1.85.88-3.23,1.89-4.61-.17.67-.38,1.32-.51,2-.07.35-.06.74.01,1.1.1.47.27.93.48,1.36.19.38.41.8.74,1.06.63.51,3.87.34,4.45-.26.55-.58.95-.78,1.56-.06.46.54,3.75.84,4.31.47.16-.1.24-.36.3-.55.12-.4.35-.75.51-.1.23.9.84.78,1.44.72.86-.08.62-.78.68-1.3.11-.95.71-1.47,1.33-1.03.31.22.45.84.47,1.28.03.78.28,1.11,1.1,1.08.86-.04.8-.61.81-1.17,0-1.35.03-2.7,0-4.05-.03-1.26-.43-1.73-1.68-1.77ZM36.49,5.51c-.59-.48-1.08-1.16-1.41-1.85-.22-.47.76-1.56,1.26-1.58.88-.03,1.58.61,1.62,1.48.02.58-1.19,2.18-1.47,1.96ZM48.11,3.21c-.23-.3-.46-.6-.81-1.06.39-.32.77-.75.86-.69.39.23.7.6,1.04.92-.36.28-.73.56-1.09.84Z"/><path d="M13.6.22c-.54-.08-1.39-.56-1.62.53-.13.61-.39.28-.67.08-1.62-1.16-2.96-1.08-4.4.28-.58.54-1.02,1.11-1.34-.23-.08-.34-.86-.67-1.35-.72-1.05-.11-2.13,0-3.19-.04C.3.1-.01.38,0,1.1.02,2.05,0,3.01,0,3.96c0,3.37.37,3.72,3.76,3.12.79-.14,1.65-.43,2.03-1.36.27-.65.32-.18.54.1.37.48.82,1.14,1.33,1.23,1.03.19,2.15.2,3.18,0,.66-.12,1.19-.18,1.86.02.81.24,1.43-.06,1.4-1.09-.03-.78,0-1.57,0-2.36h.01c0-.73.06-1.46-.02-2.19-.05-.44-.26-1.18-.48-1.21ZM4.23,4.41c-.37.54-1.08.85-1.68,1.21-.04.03-.44-.32-.47-.52-.07-.55-.02-1.11-.02-1.67-.07-.02-.14-.03-.2-.05.2-.64.4-1.29.6-1.93.59.44,1.32.78,1.72,1.36.27.38.31,1.24.05,1.62ZM10.64,4.02c-.26.62-.8,1.18-1.35,1.59-.29.22-1.55-1.52-1.51-2.11.06-.87.67-1.46,1.5-1.43.57.02,1.62,1.34,1.36,1.95Z"/><path d="M25,3.24c-.39.02-.8-.05-1.18.02-.34.07-.65.27-.98.42.21.32.44.63.64.95.11.17.18.35.26.53-.27.09-.59.32-.81.25-.29-.1-.47-.45-.74-.65-.77-.58-.84-1.27-.28-2.01.58-.78,1.31-.95,2.16-.4.22.14.47.35.7.35.37,0,.74-.14,1.11-.22-.09-.41-.07-.9-.29-1.2-1.08-1.46-2.93-1.62-4.5-.47-.28.21-.66.7-.79-.09-.16-.91-.84-.58-1.32-.57-.81.01-.54.69-.58,1.14-.04.45,0,.9-.03,1.35,0,.14-.14.26-.22.4-.09-.12-.19-.22-.26-.35-.4-.7-.69-1.51-1.24-2.07-.35-.35-1.09-.39-1.65-.41-.11,0-.32.72-.35,1.12-.06.73-.02,1.46-.02,2.19,0,.84-.06,1.69.03,2.53.04.36.37.68.57,1.03.21-.32.53-.61.62-.96.11-.42.01-.89.05-1.34.02-.19.15-.38.23-.57.19.1.44.16.55.31.36.54.88,1.08.97,1.68.14,1.02.77.99,1.44.92.57-.06,1.13-.37,1.69-.35.86.03,1.72.34,2.58.35,2.91.05,2.88.02,2.66-2.87-.06-.71-.29-1.03-1.01-.99Z"/><path d="M103.62,5.19c-.63,0-1.27-.09-1.24.88.02.67.19,1.1,1.04,1.03.7.13,1.05-.2,1.07-1,.02-.65-.24-.92-.88-.91Z"/></g></svg>