<?xml version="1.0" encoding="UTF-8"?><svg id="Layer_2" xmlns="http://www.w3.org/2000/svg" viewBox="0 0 41.71 41.72"><g id="Layer_1-2"><path d="M31.47,16.57c-.14-1.41-1.44-.68-2.5-.85v-2.72s-.36-.39-.39-.39h-2.57c-.1-.59.3-2.09-.42-2.3-2.87.16-6.19-.32-9.01-.04-1.37.14-.7,1.3-.85,2.34h-2.72s-.39.36-.39.39v2.72c-.6.11-2.24-.32-2.46.42.16,2.87-.32,6.19-.04,9.01.14,1.41,1.44.68,2.5.85v2.57s.36.39.39.39h2.72c.16,1.06-.56,2.36.85,2.5,2.82.28,6.14-.2,9.01-.04.74-.22.32-1.86.42-2.46h2.57s.39-.36.39-.39v-2.57c.6-.11,2.24.32,2.46-.42-.16-2.87.32-6.19.04-9.01ZM27.73,25.22c-2.53-.18-2.67-.04-2.49,2.49h-8.88c.18-2.53.04-2.67-2.49-2.49v-8.88c2.35.13,2.71.17,2.49-2.34h8.88c-.22,2.5.14,2.46,2.49,2.34v8.88Z"/><path d="M40.03,9.18c-.1-.1.11-2.23-.03-2.69-.19-.66-1.3-.37-1.84-.42.18-2.34,0-2.51-2.34-2.34.44-2.65-1.31-1.73-3.11-1.87-.06-.6.3-1.71-.55-1.86H9.59c-.85.16-.48,1.26-.55,1.86-1.8.17-3.74-.84-3.27,1.87-2.34-.18-2.51,0-2.34,2.34-.48.06-1.41-.18-1.73.22-.36.46,0,2.75-.14,2.9-.11.11-1.67-.33-1.56.69v22.27c.18.91,1.43.41,1.56.55.09.09-.1,2.09.03,2.54.19.66,1.3.37,1.84.42-.18,2.34,0,2.51,2.34,2.34-.47,2.71,1.46,1.7,3.27,1.87.05.5-.21,1.54.31,1.79l22.81.07c.85-.16.48-1.26.55-1.86,1.8-.14,3.56.78,3.11-1.87,2.34.18,2.51,0,2.34-2.34.48-.06,1.41.18,1.73-.22.36-.46,0-2.6.14-2.74.11-.11,1.36.26,1.64-.31l.05-22.78c-.22-.73-1.56-.29-1.68-.42ZM38,31.92c-2.62-.66-1.37,1.99-1.71,2.34-.29.3-2.47-.8-1.87,1.87-1.82-.04-2.62-.33-2.34,1.87H9.51c.28-2.2-.52-1.91-2.34-1.87.61-2.67-1.57-1.57-1.87-1.87-.32-.32.84-2.96-1.56-2.34V9.8c2.4.63,1.24-2.01,1.56-2.34.29-.3,2.47.8,1.87-1.87,1.82.04,2.62.33,2.34-1.87h22.58c-.28,2.2.52,1.91,2.34,1.87-.61,2.67,1.57,1.57,1.87,1.87.35.35-.91,3,1.71,2.34v22.11Z"/><path d="M33.41,7.94h-2.96c-.07.1-.39.34-.39.39v2.96s.36.39.39.39h2.96s.39-.36.39-.39v-2.96s-.36-.39-.39-.39Z"/></g></svg>