<?xml version="1.0" encoding="UTF-8"?><svg id="Layer_2" xmlns="http://www.w3.org/2000/svg" viewBox="0 0 38.67 38.68"><defs><style>.cls-1{fill:#fff;}</style></defs><g id="Layer_1-2"><path class="cls-1" d="M29.18,15.36c-.13-1.3-1.33-.63-2.32-.79v-2.53s-.34-.36-.36-.36h-2.38c-.09-.54.28-1.94-.39-2.14-2.66.15-5.74-.3-8.35-.04-1.27.13-.65,1.21-.79,2.17h-2.53s-.36.34-.36.36v2.53c-.56.1-2.08-.29-2.28.39.15,2.66-.3,5.74-.04,8.35.13,1.3,1.33.63,2.32.79v2.38s.34.36.36.36h2.53c.15.98-.52,2.19.79,2.32,2.61.26,5.69-.19,8.35-.04.68-.2.29-1.72.39-2.28h2.38s.36-.34.36-.36v-2.38c.56-.1,2.08.29,2.28-.39-.15-2.66.3-5.74.04-8.35ZM25.71,23.38c-2.34-.17-2.48-.03-2.31,2.31h-8.23c.17-2.34.03-2.47-2.31-2.31v-8.23c2.18.12,2.52.16,2.31-2.17h8.23c-.21,2.32.13,2.29,2.31,2.17v8.23Z"/><path class="cls-1" d="M37.11,8.51c-.09-.09.1-2.07-.03-2.5-.18-.61-1.21-.34-1.7-.39.16-2.17,0-2.33-2.17-2.17.41-2.46-1.22-1.6-2.89-1.73-.06-.56.28-1.58-.51-1.73H8.89c-.78.15-.45,1.17-.51,1.73-1.67.16-3.47-.78-3.03,1.73-2.17-.16-2.33,0-2.17,2.17-.44.05-1.31-.17-1.6.2-.34.43,0,2.55-.13,2.69-.11.11-1.55-.3-1.45.64v20.65c.17.85,1.33.38,1.45.51.08.08-.09,1.94.03,2.35.18.61,1.21.34,1.7.39-.16,2.17,0,2.33,2.17,2.17-.44,2.51,1.36,1.57,3.03,1.73.05.46-.19,1.43.29,1.66l21.14.07c.78-.15.45-1.17.51-1.73,1.67-.13,3.3.72,2.89-1.73,2.17.16,2.33,0,2.17-2.17.44-.05,1.31.17,1.6-.2.33-.42,0-2.41.13-2.54.1-.1,1.26.24,1.52-.29l.04-21.12c-.2-.68-1.44-.27-1.56-.39ZM35.24,29.59c-2.43-.61-1.27,1.84-1.59,2.17-.27.27-2.29-.74-1.73,1.73-1.68-.04-2.43-.31-2.17,1.73H8.82c.26-2.04-.48-1.77-2.17-1.73.56-2.48-1.46-1.46-1.73-1.73-.3-.3.78-2.75-1.44-2.17V9.09c2.22.58,1.15-1.87,1.44-2.17.27-.27,2.29.74,1.73-1.73,1.68.04,2.43.31,2.17-1.73h20.93c-.26,2.04.48,1.77,2.17,1.73-.56,2.48,1.46,1.46,1.73,1.73.32.32-.84,2.78,1.59,2.17v20.5Z"/><path class="cls-1" d="M30.98,7.36h-2.74c-.06.1-.36.31-.36.36v2.74s.34.36.36.36h2.74s.36-.34.36-.36v-2.74s-.34-.36-.36-.36Z"/></g></svg>