<?xml version="1.0" encoding="UTF-8"?><svg id="Layer_2" xmlns="http://www.w3.org/2000/svg" viewBox="0 0 43.47 43.47"><defs><style>.cls-1{fill:#f1f2f2;}</style></defs><g id="Layer_1-2"><g id="Layer_1-2"><path class="cls-1" d="M43.47,43.47h-9.42v-17.91h-2.76s-.13-.12-.13-.13v-2.76h-5.6v2.76s-.12.13-.13.13h-2.76v17.91h-9.42V14.18h8.49v2.8h2.8v-2.8h13.24v2.8h2.76s.13.12.13.13v2.76h2.8v23.6Z"/><path class="cls-1" d="M8.49,0v2.8h2.76s.13.12.13.13v5.56h-2.89v2.89H2.93s-.13-.12-.13-.13v-2.76H0V2.8h2.8V0h5.69Z"/><rect class="cls-1" x=".93" y="14.18" width="9.42" height="29.29"/></g></g></svg>